G75*
%MOIN*%
%OFA0B0*%
%FSLAX25Y25*%
%IPPOS*%
%LPD*%
%AMOC8*
5,1,8,0,0,1.08239X$1,22.5*
%
%ADD10R,0.06000X0.29000*%
%ADD11OC8,0.06300*%
%ADD12C,0.01000*%
%ADD13C,0.06000*%
%ADD14R,0.05250X0.05250*%
%ADD15C,0.02000*%
%ADD16C,0.04000*%
%ADD17C,0.01600*%
D10*
X0110500Y0020500D03*
X0120500Y0020500D03*
X0130500Y0020500D03*
X0140500Y0020500D03*
X0150500Y0020500D03*
X0160500Y0020500D03*
X0170500Y0020500D03*
X0180500Y0020500D03*
X0190500Y0020500D03*
X0200500Y0020500D03*
X0210500Y0020500D03*
X0220500Y0020500D03*
X0230500Y0020500D03*
X0240500Y0020500D03*
X0250500Y0020500D03*
X0260500Y0020500D03*
X0270500Y0020500D03*
X0280500Y0020500D03*
X0290500Y0020500D03*
X0300500Y0020500D03*
X0310500Y0020500D03*
X0320500Y0020500D03*
X0330500Y0020500D03*
X0340500Y0020500D03*
X0350500Y0020500D03*
D11*
X0350500Y0045000D03*
X0340500Y0045000D03*
X0330500Y0045000D03*
X0320500Y0045000D03*
X0310500Y0045000D03*
X0300500Y0045000D03*
X0290500Y0045000D03*
X0280500Y0045000D03*
X0270500Y0045000D03*
X0260500Y0045000D03*
X0250500Y0045000D03*
X0240500Y0045000D03*
X0230500Y0045000D03*
X0220500Y0045000D03*
X0210500Y0045000D03*
X0200500Y0045000D03*
X0190500Y0045000D03*
X0180500Y0045000D03*
X0170500Y0045000D03*
X0160500Y0045000D03*
X0150500Y0045000D03*
X0140500Y0045000D03*
X0130500Y0045000D03*
X0120500Y0045000D03*
X0110500Y0045000D03*
X0110500Y0065000D03*
X0120500Y0065000D03*
X0130500Y0065000D03*
X0140500Y0065000D03*
X0150500Y0065000D03*
X0160500Y0065000D03*
X0170500Y0065000D03*
X0180500Y0065000D03*
X0190500Y0065000D03*
X0200500Y0065000D03*
X0210500Y0065000D03*
X0220500Y0065000D03*
X0230500Y0065000D03*
X0240500Y0065000D03*
X0250500Y0065000D03*
X0260500Y0065000D03*
X0270500Y0065000D03*
X0280500Y0065000D03*
X0290500Y0065000D03*
X0300500Y0065000D03*
X0310500Y0065000D03*
X0320500Y0065000D03*
X0100500Y0065000D03*
X0090500Y0065000D03*
D12*
X0098000Y0057500D01*
X0103000Y0057500D01*
X0105500Y0055000D01*
X0105500Y0037500D01*
X0110500Y0022500D01*
X0110500Y0020500D01*
X0155500Y0037500D02*
X0160500Y0022500D01*
X0160500Y0020500D01*
X0170500Y0020500D02*
X0170500Y0022500D01*
X0165500Y0037500D01*
X0165500Y0050000D01*
X0150500Y0065000D01*
X0140500Y0065000D02*
X0155500Y0050000D01*
X0155500Y0037500D01*
X0175500Y0037500D02*
X0175500Y0050000D01*
X0160500Y0065000D01*
X0170500Y0065000D02*
X0185500Y0050000D01*
X0185500Y0037500D01*
X0190500Y0022500D01*
X0190500Y0020500D01*
X0180500Y0020500D02*
X0180500Y0022500D01*
X0175500Y0037500D01*
X0195500Y0037500D02*
X0195500Y0050000D01*
X0180500Y0065000D01*
X0190500Y0065000D02*
X0205500Y0050000D01*
X0205500Y0037500D01*
X0210500Y0022500D01*
X0210500Y0020500D01*
X0200500Y0020500D02*
X0200500Y0022500D01*
X0195500Y0037500D01*
X0215500Y0037500D02*
X0220500Y0022500D01*
X0220500Y0020500D01*
X0230500Y0020500D02*
X0230500Y0022500D01*
X0225500Y0037500D01*
X0225500Y0050000D01*
X0210500Y0065000D01*
X0200500Y0065000D02*
X0215500Y0050000D01*
X0215500Y0037500D01*
X0235500Y0037500D02*
X0235500Y0050000D01*
X0220500Y0065000D01*
X0230500Y0065000D02*
X0245500Y0050000D01*
X0245500Y0037500D01*
X0250500Y0022500D01*
X0250500Y0020500D01*
X0260500Y0020500D02*
X0260500Y0022500D01*
X0255500Y0037500D01*
X0255500Y0050000D01*
X0240500Y0065000D01*
X0250500Y0065000D02*
X0265500Y0050000D01*
X0265500Y0037500D01*
X0270500Y0022500D01*
X0270500Y0020500D01*
X0280500Y0020500D02*
X0280500Y0022500D01*
X0275500Y0037500D01*
X0275500Y0050000D01*
X0260500Y0065000D01*
X0270500Y0065000D02*
X0285500Y0050000D01*
X0285500Y0037500D01*
X0290500Y0022500D01*
X0290500Y0020500D01*
X0300500Y0020500D02*
X0300500Y0022500D01*
X0295500Y0037500D01*
X0295500Y0050000D01*
X0280500Y0065000D01*
X0290500Y0065000D02*
X0305500Y0050000D01*
X0305500Y0037500D01*
X0310500Y0022500D01*
X0310500Y0020500D01*
X0320500Y0020500D02*
X0320500Y0022500D01*
X0315500Y0037500D01*
X0315500Y0050000D01*
X0300500Y0065000D01*
X0310500Y0065000D02*
X0325500Y0050000D01*
X0325500Y0037500D01*
X0333000Y0037500D01*
X0340500Y0030000D01*
X0340500Y0020500D01*
X0350500Y0020500D02*
X0350500Y0030000D01*
X0340500Y0040000D01*
X0335500Y0040000D01*
X0335500Y0050000D01*
X0320500Y0065000D01*
X0235500Y0037500D02*
X0240500Y0022500D01*
X0240500Y0020500D01*
D13*
X0240500Y0085000D03*
X0230500Y0085000D03*
X0220500Y0085000D03*
X0210500Y0085000D03*
X0200500Y0085000D03*
X0190500Y0085000D03*
X0180500Y0085000D03*
X0170500Y0085000D03*
X0160500Y0085000D03*
X0150500Y0085000D03*
X0140500Y0085000D03*
X0140500Y0095000D03*
X0150500Y0095000D03*
X0160500Y0095000D03*
X0170500Y0095000D03*
X0180500Y0095000D03*
X0190500Y0095000D03*
X0200500Y0095000D03*
X0210500Y0095000D03*
X0220500Y0095000D03*
X0230500Y0095000D03*
X0240500Y0095000D03*
X0250500Y0095000D03*
X0260500Y0095000D03*
X0270500Y0095000D03*
X0280500Y0095000D03*
X0290500Y0095000D03*
X0300500Y0095000D03*
X0310500Y0095000D03*
X0320500Y0095000D03*
X0330500Y0095000D03*
X0340500Y0095000D03*
X0350500Y0095000D03*
X0360500Y0095000D03*
X0370500Y0095000D03*
X0380500Y0095000D03*
X0380500Y0105000D03*
X0370500Y0105000D03*
X0360500Y0105000D03*
X0350500Y0105000D03*
X0340500Y0105000D03*
X0330500Y0105000D03*
X0320500Y0105000D03*
X0310500Y0105000D03*
X0300500Y0105000D03*
X0290500Y0105000D03*
X0280500Y0105000D03*
X0270500Y0105000D03*
X0260500Y0105000D03*
X0250500Y0105000D03*
X0240500Y0105000D03*
X0230500Y0105000D03*
X0220500Y0105000D03*
X0210500Y0105000D03*
X0200500Y0105000D03*
X0190500Y0105000D03*
X0180500Y0105000D03*
X0170500Y0105000D03*
X0160500Y0105000D03*
X0150500Y0105000D03*
X0140500Y0105000D03*
X0130500Y0105000D03*
X0120500Y0105000D03*
X0110500Y0105000D03*
X0100500Y0105000D03*
X0090500Y0105000D03*
X0080500Y0105000D03*
X0070500Y0105000D03*
X0060500Y0105000D03*
X0050500Y0105000D03*
X0040500Y0105000D03*
X0040500Y0115000D03*
X0050500Y0115000D03*
X0060500Y0115000D03*
X0070500Y0115000D03*
X0080500Y0115000D03*
X0090500Y0115000D03*
X0100500Y0115000D03*
X0110500Y0115000D03*
X0120500Y0115000D03*
X0130500Y0115000D03*
X0140500Y0115000D03*
X0150500Y0115000D03*
X0160500Y0115000D03*
X0170500Y0115000D03*
X0180500Y0115000D03*
X0190500Y0115000D03*
X0200500Y0115000D03*
X0210500Y0115000D03*
X0220500Y0115000D03*
X0230500Y0115000D03*
X0240500Y0115000D03*
X0250500Y0115000D03*
X0260500Y0115000D03*
X0270500Y0115000D03*
X0280500Y0115000D03*
X0290500Y0115000D03*
X0300500Y0115000D03*
X0310500Y0115000D03*
X0320500Y0115000D03*
X0330500Y0115000D03*
X0340500Y0115000D03*
X0350500Y0115000D03*
X0360500Y0115000D03*
X0370500Y0115000D03*
X0380500Y0115000D03*
X0380500Y0125000D03*
X0370500Y0125000D03*
X0360500Y0125000D03*
X0350500Y0125000D03*
X0340500Y0125000D03*
X0330500Y0125000D03*
X0320500Y0125000D03*
X0310500Y0125000D03*
X0300500Y0125000D03*
X0290500Y0125000D03*
X0280500Y0125000D03*
X0270500Y0125000D03*
X0260500Y0125000D03*
X0250500Y0125000D03*
X0240500Y0125000D03*
X0230500Y0125000D03*
X0220500Y0125000D03*
X0210500Y0125000D03*
X0200500Y0125000D03*
X0190500Y0125000D03*
X0180500Y0125000D03*
X0170500Y0125000D03*
X0160500Y0125000D03*
X0150500Y0125000D03*
X0140500Y0125000D03*
X0130500Y0125000D03*
X0120500Y0125000D03*
X0110500Y0125000D03*
X0100500Y0125000D03*
X0090500Y0125000D03*
X0080500Y0125000D03*
X0070500Y0125000D03*
X0060500Y0125000D03*
X0050500Y0125000D03*
X0040500Y0125000D03*
X0040500Y0135000D03*
X0050500Y0135000D03*
X0060500Y0135000D03*
X0070500Y0135000D03*
X0080500Y0135000D03*
X0090500Y0135000D03*
X0100500Y0135000D03*
X0110500Y0135000D03*
X0120500Y0135000D03*
X0130500Y0135000D03*
X0140500Y0135000D03*
X0150500Y0135000D03*
X0160500Y0135000D03*
X0170500Y0135000D03*
X0180500Y0135000D03*
X0190500Y0135000D03*
X0200500Y0135000D03*
X0210500Y0135000D03*
X0220500Y0135000D03*
X0230500Y0135000D03*
X0240500Y0135000D03*
X0250500Y0135000D03*
X0260500Y0135000D03*
X0270500Y0135000D03*
X0280500Y0135000D03*
X0290500Y0135000D03*
X0300500Y0135000D03*
X0310500Y0135000D03*
X0320500Y0135000D03*
X0330500Y0135000D03*
X0340500Y0135000D03*
X0350500Y0135000D03*
X0360500Y0135000D03*
X0370500Y0135000D03*
X0380500Y0135000D03*
X0380500Y0145000D03*
X0370500Y0145000D03*
X0360500Y0145000D03*
X0350500Y0145000D03*
X0340500Y0145000D03*
X0330500Y0145000D03*
X0320500Y0145000D03*
X0310500Y0145000D03*
X0300500Y0145000D03*
X0290500Y0145000D03*
X0280500Y0145000D03*
X0270500Y0145000D03*
X0260500Y0145000D03*
X0250500Y0145000D03*
X0240500Y0145000D03*
X0230500Y0145000D03*
X0220500Y0145000D03*
X0210500Y0145000D03*
X0200500Y0145000D03*
X0190500Y0145000D03*
X0180500Y0145000D03*
X0170500Y0145000D03*
X0160500Y0145000D03*
X0150500Y0145000D03*
X0140500Y0145000D03*
X0130500Y0145000D03*
X0120500Y0145000D03*
X0110500Y0145000D03*
X0100500Y0145000D03*
X0090500Y0145000D03*
X0080500Y0145000D03*
X0070500Y0145000D03*
X0060500Y0145000D03*
X0050500Y0145000D03*
X0040500Y0145000D03*
X0040500Y0155000D03*
X0050500Y0155000D03*
X0060500Y0155000D03*
X0070500Y0155000D03*
X0080500Y0155000D03*
X0090500Y0155000D03*
X0100500Y0155000D03*
X0110500Y0155000D03*
X0120500Y0155000D03*
X0130500Y0155000D03*
X0140500Y0155000D03*
X0150500Y0155000D03*
X0160500Y0155000D03*
X0170500Y0155000D03*
X0180500Y0155000D03*
X0190500Y0155000D03*
X0200500Y0155000D03*
X0210500Y0155000D03*
X0220500Y0155000D03*
X0230500Y0155000D03*
X0240500Y0155000D03*
X0250500Y0155000D03*
X0260500Y0155000D03*
X0270500Y0155000D03*
X0280500Y0155000D03*
X0290500Y0155000D03*
X0300500Y0155000D03*
X0310500Y0155000D03*
X0320500Y0155000D03*
X0330500Y0155000D03*
X0340500Y0155000D03*
X0350500Y0155000D03*
X0360500Y0155000D03*
X0370500Y0155000D03*
X0380500Y0155000D03*
X0380500Y0165000D03*
X0370500Y0165000D03*
X0360500Y0165000D03*
X0350500Y0165000D03*
X0340500Y0165000D03*
X0330500Y0165000D03*
X0320500Y0165000D03*
X0310500Y0165000D03*
X0300500Y0165000D03*
X0290500Y0165000D03*
X0280500Y0165000D03*
X0270500Y0165000D03*
X0260500Y0165000D03*
X0250500Y0165000D03*
X0240500Y0165000D03*
X0230500Y0165000D03*
X0220500Y0165000D03*
X0210500Y0165000D03*
X0200500Y0165000D03*
X0190500Y0165000D03*
X0180500Y0165000D03*
X0170500Y0165000D03*
X0160500Y0165000D03*
X0150500Y0165000D03*
X0140500Y0165000D03*
X0130500Y0165000D03*
X0120500Y0165000D03*
X0110500Y0165000D03*
X0100500Y0165000D03*
X0090500Y0165000D03*
X0080500Y0165000D03*
X0070500Y0165000D03*
X0060500Y0165000D03*
X0050500Y0165000D03*
X0040500Y0165000D03*
X0040500Y0175000D03*
X0050500Y0175000D03*
X0060500Y0175000D03*
X0070500Y0175000D03*
X0080500Y0175000D03*
X0090500Y0175000D03*
X0100500Y0175000D03*
X0110500Y0175000D03*
X0120500Y0175000D03*
X0130500Y0175000D03*
X0140500Y0175000D03*
X0150500Y0175000D03*
X0160500Y0175000D03*
X0170500Y0175000D03*
X0180500Y0175000D03*
X0190500Y0175000D03*
X0200500Y0175000D03*
X0210500Y0175000D03*
X0220500Y0175000D03*
X0230500Y0175000D03*
X0240500Y0175000D03*
X0250500Y0175000D03*
X0260500Y0175000D03*
X0270500Y0175000D03*
X0280500Y0175000D03*
X0290500Y0175000D03*
X0300500Y0175000D03*
X0310500Y0175000D03*
X0320500Y0175000D03*
X0330500Y0175000D03*
X0340500Y0175000D03*
X0350500Y0175000D03*
X0360500Y0175000D03*
X0370500Y0175000D03*
X0380500Y0175000D03*
X0380500Y0185000D03*
X0370500Y0185000D03*
X0360500Y0185000D03*
X0350500Y0185000D03*
X0340500Y0185000D03*
X0330500Y0185000D03*
X0320500Y0185000D03*
X0310500Y0185000D03*
X0300500Y0185000D03*
X0290500Y0185000D03*
X0280500Y0185000D03*
X0270500Y0185000D03*
X0260500Y0185000D03*
X0250500Y0185000D03*
X0240500Y0185000D03*
X0230500Y0185000D03*
X0220500Y0185000D03*
X0210500Y0185000D03*
X0200500Y0185000D03*
X0190500Y0185000D03*
X0180500Y0185000D03*
X0170500Y0185000D03*
X0160500Y0185000D03*
X0150500Y0185000D03*
X0140500Y0185000D03*
X0130500Y0185000D03*
X0120500Y0185000D03*
X0110500Y0185000D03*
X0100500Y0185000D03*
X0090500Y0185000D03*
X0080500Y0185000D03*
X0070500Y0185000D03*
X0060500Y0185000D03*
X0050500Y0185000D03*
X0040500Y0185000D03*
X0040500Y0195000D03*
X0050500Y0195000D03*
X0060500Y0195000D03*
X0070500Y0195000D03*
X0080500Y0195000D03*
X0090500Y0195000D03*
X0100500Y0195000D03*
X0110500Y0195000D03*
X0120500Y0195000D03*
X0130500Y0195000D03*
X0140500Y0195000D03*
X0150500Y0195000D03*
X0160500Y0195000D03*
X0170500Y0195000D03*
X0180500Y0195000D03*
X0190500Y0195000D03*
X0200500Y0195000D03*
X0210500Y0195000D03*
X0220500Y0195000D03*
X0230500Y0195000D03*
X0240500Y0195000D03*
X0250500Y0195000D03*
X0260500Y0195000D03*
X0270500Y0195000D03*
X0280500Y0195000D03*
X0290500Y0195000D03*
X0300500Y0195000D03*
X0310500Y0195000D03*
X0320500Y0195000D03*
X0330500Y0195000D03*
X0340500Y0195000D03*
X0350500Y0195000D03*
X0360500Y0195000D03*
X0370500Y0195000D03*
X0380500Y0195000D03*
X0380500Y0205000D03*
X0370500Y0205000D03*
X0360500Y0205000D03*
X0350500Y0205000D03*
X0340500Y0205000D03*
X0330500Y0205000D03*
X0320500Y0205000D03*
X0310500Y0205000D03*
X0300500Y0205000D03*
X0290500Y0205000D03*
X0280500Y0205000D03*
X0270500Y0205000D03*
X0260500Y0205000D03*
X0250500Y0205000D03*
X0240500Y0205000D03*
X0230500Y0205000D03*
X0220500Y0205000D03*
X0210500Y0205000D03*
X0200500Y0205000D03*
X0190500Y0205000D03*
X0180500Y0205000D03*
X0170500Y0205000D03*
X0160500Y0205000D03*
X0150500Y0205000D03*
X0140500Y0205000D03*
X0130500Y0205000D03*
X0120500Y0205000D03*
X0110500Y0205000D03*
X0100500Y0205000D03*
X0090500Y0205000D03*
X0080500Y0205000D03*
X0070500Y0205000D03*
X0060500Y0205000D03*
X0050500Y0205000D03*
X0040500Y0205000D03*
X0040500Y0215000D03*
X0050500Y0215000D03*
X0060500Y0215000D03*
X0070500Y0215000D03*
X0080500Y0215000D03*
X0090500Y0215000D03*
X0100500Y0215000D03*
X0110500Y0215000D03*
X0120500Y0215000D03*
X0130500Y0215000D03*
X0140500Y0215000D03*
X0150500Y0215000D03*
X0160500Y0215000D03*
X0170500Y0215000D03*
X0180500Y0215000D03*
X0190500Y0215000D03*
X0200500Y0215000D03*
X0210500Y0215000D03*
X0220500Y0215000D03*
X0230500Y0215000D03*
X0240500Y0215000D03*
X0250500Y0215000D03*
X0260500Y0215000D03*
X0270500Y0215000D03*
X0280500Y0215000D03*
X0290500Y0215000D03*
X0300500Y0215000D03*
X0310500Y0215000D03*
X0320500Y0215000D03*
X0330500Y0215000D03*
X0340500Y0215000D03*
X0350500Y0215000D03*
X0360500Y0215000D03*
X0370500Y0215000D03*
X0380500Y0215000D03*
X0380500Y0225000D03*
X0370500Y0225000D03*
X0360500Y0225000D03*
X0350500Y0225000D03*
X0340500Y0225000D03*
X0330500Y0225000D03*
X0320500Y0225000D03*
X0310500Y0225000D03*
X0300500Y0225000D03*
X0290500Y0225000D03*
X0280500Y0225000D03*
X0270500Y0225000D03*
X0260500Y0225000D03*
X0250500Y0225000D03*
X0240500Y0225000D03*
X0230500Y0225000D03*
X0220500Y0225000D03*
X0210500Y0225000D03*
X0200500Y0225000D03*
X0190500Y0225000D03*
X0180500Y0225000D03*
X0170500Y0225000D03*
X0160500Y0225000D03*
X0150500Y0225000D03*
X0140500Y0225000D03*
X0130500Y0225000D03*
X0120500Y0225000D03*
X0110500Y0225000D03*
X0100500Y0225000D03*
X0090500Y0225000D03*
X0080500Y0225000D03*
X0070500Y0225000D03*
X0060500Y0225000D03*
X0050500Y0225000D03*
X0040500Y0225000D03*
X0070500Y0095000D03*
X0080500Y0095000D03*
X0090500Y0095000D03*
X0100500Y0095000D03*
X0100500Y0085000D03*
X0090500Y0085000D03*
X0080500Y0085000D03*
X0070500Y0085000D03*
X0250500Y0085000D03*
X0260500Y0085000D03*
X0270500Y0085000D03*
X0280500Y0085000D03*
X0290500Y0085000D03*
X0300500Y0085000D03*
X0310500Y0085000D03*
X0320500Y0085000D03*
X0330500Y0085000D03*
X0340500Y0085000D03*
X0350500Y0085000D03*
X0360500Y0085000D03*
X0370500Y0085000D03*
X0380500Y0085000D03*
D14*
X0390500Y0085000D03*
X0390500Y0095000D03*
X0390500Y0105000D03*
X0390500Y0115000D03*
X0390500Y0125000D03*
X0390500Y0135000D03*
X0390500Y0145000D03*
X0390500Y0155000D03*
X0390500Y0165000D03*
X0390500Y0175000D03*
X0390500Y0185000D03*
X0390500Y0195000D03*
X0390500Y0205000D03*
X0390500Y0215000D03*
X0390500Y0225000D03*
X0030500Y0225000D03*
X0030500Y0215000D03*
X0030500Y0205000D03*
X0030500Y0195000D03*
X0030500Y0185000D03*
X0030500Y0175000D03*
X0030500Y0165000D03*
X0030500Y0155000D03*
X0030500Y0145000D03*
X0030500Y0135000D03*
X0030500Y0125000D03*
X0030500Y0115000D03*
X0030500Y0105000D03*
D15*
X0030500Y0100000D01*
X0035500Y0095000D01*
X0055500Y0095000D01*
X0060500Y0090000D01*
X0060500Y0080000D01*
X0065500Y0075000D01*
X0090500Y0075000D01*
X0100500Y0065000D01*
X0110500Y0065000D01*
X0125500Y0050000D01*
X0125500Y0035000D01*
X0131000Y0020500D01*
X0120500Y0020500D02*
X0115500Y0035500D01*
X0115500Y0050000D01*
X0100500Y0065000D01*
X0120500Y0065000D02*
X0130500Y0065000D01*
X0140500Y0075000D01*
X0325500Y0075000D01*
X0330500Y0079500D01*
X0350500Y0079500D01*
X0355500Y0075000D01*
X0380500Y0075000D01*
X0390500Y0085000D01*
X0150500Y0020500D02*
X0145500Y0035000D01*
X0145500Y0050000D01*
X0130500Y0065000D01*
X0120500Y0065000D02*
X0135500Y0050000D01*
X0135500Y0035000D01*
X0140000Y0020500D01*
D16*
X0030500Y0105000D02*
X0030500Y0115000D01*
X0030500Y0125000D01*
X0030500Y0135000D01*
X0030500Y0145000D01*
X0030500Y0155000D01*
X0030500Y0165000D01*
X0030500Y0175000D01*
X0030500Y0185000D01*
X0030500Y0195000D01*
X0030500Y0205000D01*
X0030500Y0215000D01*
X0030500Y0225000D01*
X0390500Y0225000D02*
X0390500Y0215000D01*
X0390500Y0205000D01*
X0390500Y0195000D01*
X0390500Y0185000D01*
X0390500Y0175000D01*
X0390500Y0165000D01*
X0390500Y0155000D01*
X0390500Y0145000D01*
X0390500Y0135000D01*
X0390500Y0125000D01*
X0390500Y0115000D01*
X0390500Y0105000D01*
X0390500Y0095000D01*
X0390500Y0085000D01*
D17*
X0140500Y0020500D02*
X0140000Y0020500D01*
X0131000Y0020500D02*
X0130500Y0020500D01*
M02*
