G75*
%MOIN*%
%OFA0B0*%
%FSLAX25Y25*%
%IPPOS*%
%LPD*%
%AMOC8*
5,1,8,0,0,1.08239X$1,22.5*
%
%ADD10C,0.01000*%
%ADD11C,0.00400*%
%ADD12C,0.00200*%
%ADD13C,0.00300*%
%ADD14C,0.00000*%
D10*
X0053000Y0055000D02*
X0100500Y0055000D01*
X0100500Y0005000D01*
X0360500Y0005000D01*
X0360500Y0055000D01*
X0405500Y0055000D01*
X0405500Y0237000D01*
X0015500Y0237000D01*
X0015500Y0091000D01*
X0053000Y0091000D01*
X0053000Y0055000D01*
D11*
X0107627Y0040537D02*
X0107627Y0037467D01*
X0108394Y0036700D01*
X0109929Y0036700D01*
X0110696Y0037467D01*
X0109929Y0039002D02*
X0107627Y0039002D01*
X0107627Y0040537D02*
X0108394Y0041304D01*
X0109929Y0041304D01*
X0110696Y0040537D01*
X0110696Y0039769D01*
X0109929Y0039002D01*
X0112231Y0039002D02*
X0115300Y0039002D01*
X0112998Y0041304D01*
X0112998Y0036700D01*
X0145127Y0036700D02*
X0148196Y0036700D01*
X0146661Y0036700D02*
X0146661Y0041304D01*
X0148196Y0039769D01*
X0149731Y0039002D02*
X0152800Y0039002D01*
X0150498Y0041304D01*
X0150498Y0036700D01*
X0195127Y0036700D02*
X0198196Y0036700D01*
X0196661Y0036700D02*
X0196661Y0041304D01*
X0198196Y0039769D01*
X0199731Y0039769D02*
X0200498Y0039002D01*
X0199731Y0038235D01*
X0199731Y0037467D01*
X0200498Y0036700D01*
X0202033Y0036700D01*
X0202800Y0037467D01*
X0201265Y0039002D02*
X0200498Y0039002D01*
X0199731Y0039769D02*
X0199731Y0040537D01*
X0200498Y0041304D01*
X0202033Y0041304D01*
X0202800Y0040537D01*
X0245127Y0036700D02*
X0248196Y0036700D01*
X0246661Y0036700D02*
X0246661Y0041304D01*
X0248196Y0039769D01*
X0249731Y0039769D02*
X0249731Y0040537D01*
X0250498Y0041304D01*
X0252033Y0041304D01*
X0252800Y0040537D01*
X0249731Y0039769D02*
X0252800Y0036700D01*
X0249731Y0036700D01*
X0295127Y0036700D02*
X0298196Y0036700D01*
X0296661Y0036700D02*
X0296661Y0041304D01*
X0298196Y0039769D01*
X0299731Y0036700D02*
X0302800Y0036700D01*
X0301265Y0036700D02*
X0301265Y0041304D01*
X0302800Y0039769D01*
X0349731Y0036700D02*
X0352800Y0036700D01*
X0351265Y0036700D02*
X0351265Y0041304D01*
X0352800Y0039769D01*
X0023304Y0103047D02*
X0021769Y0104582D01*
X0023304Y0106116D01*
X0018700Y0106116D01*
X0019467Y0107651D02*
X0018700Y0108418D01*
X0018700Y0109953D01*
X0019467Y0110720D01*
X0020235Y0110720D01*
X0021002Y0109953D01*
X0021002Y0108418D01*
X0021769Y0107651D01*
X0022537Y0107651D01*
X0023304Y0108418D01*
X0023304Y0109953D01*
X0022537Y0110720D01*
X0023304Y0112255D02*
X0018700Y0115324D01*
X0018700Y0112255D02*
X0023304Y0115324D01*
X0021002Y0121463D02*
X0019467Y0121463D01*
X0018700Y0122230D01*
X0018700Y0124532D01*
X0019467Y0126067D02*
X0020235Y0126834D01*
X0020235Y0129136D01*
X0021002Y0129136D02*
X0018700Y0129136D01*
X0018700Y0126834D01*
X0019467Y0126067D01*
X0021769Y0126834D02*
X0021769Y0128368D01*
X0021002Y0129136D01*
X0021769Y0130670D02*
X0018700Y0130670D01*
X0020235Y0130670D02*
X0021769Y0132205D01*
X0021769Y0132972D01*
X0021769Y0134507D02*
X0021769Y0136042D01*
X0022537Y0135274D02*
X0019467Y0135274D01*
X0018700Y0136042D01*
X0018700Y0137576D02*
X0021769Y0137576D01*
X0020235Y0137576D02*
X0021769Y0139111D01*
X0021769Y0139878D01*
X0021769Y0141413D02*
X0021769Y0142180D01*
X0018700Y0142180D01*
X0018700Y0141413D02*
X0018700Y0142948D01*
X0019467Y0144482D02*
X0021002Y0144482D01*
X0021769Y0145250D01*
X0021769Y0147551D01*
X0023304Y0147551D02*
X0018700Y0147551D01*
X0018700Y0145250D01*
X0019467Y0144482D01*
X0023304Y0142180D02*
X0024071Y0142180D01*
X0021002Y0149086D02*
X0019467Y0149086D01*
X0018700Y0149853D01*
X0018700Y0152155D01*
X0017933Y0152155D02*
X0021769Y0152155D01*
X0021769Y0149853D01*
X0021002Y0149086D01*
X0017165Y0150621D02*
X0017165Y0151388D01*
X0017933Y0152155D01*
X0019467Y0153690D02*
X0021002Y0153690D01*
X0021769Y0154457D01*
X0021769Y0155992D01*
X0021002Y0156759D01*
X0020235Y0156759D01*
X0020235Y0153690D01*
X0019467Y0153690D02*
X0018700Y0154457D01*
X0018700Y0155992D01*
X0018700Y0162898D02*
X0018700Y0165200D01*
X0019467Y0165967D01*
X0021002Y0165967D01*
X0021769Y0165200D01*
X0021769Y0162898D01*
X0023304Y0162898D02*
X0018700Y0162898D01*
X0019467Y0167502D02*
X0018700Y0168269D01*
X0018700Y0169804D01*
X0019467Y0170571D01*
X0021002Y0170571D01*
X0021769Y0169804D01*
X0021769Y0168269D01*
X0021002Y0167502D01*
X0019467Y0167502D01*
X0019467Y0172106D02*
X0020235Y0172873D01*
X0020235Y0175175D01*
X0021002Y0175175D02*
X0018700Y0175175D01*
X0018700Y0172873D01*
X0019467Y0172106D01*
X0021769Y0172873D02*
X0021769Y0174408D01*
X0021002Y0175175D01*
X0021769Y0176710D02*
X0018700Y0176710D01*
X0020235Y0176710D02*
X0021769Y0178244D01*
X0021769Y0179012D01*
X0021002Y0180546D02*
X0021769Y0181314D01*
X0021769Y0183616D01*
X0023304Y0183616D02*
X0018700Y0183616D01*
X0018700Y0181314D01*
X0019467Y0180546D01*
X0021002Y0180546D01*
X0021769Y0189754D02*
X0017165Y0189754D01*
X0018700Y0189754D02*
X0018700Y0192056D01*
X0019467Y0192823D01*
X0021002Y0192823D01*
X0021769Y0192056D01*
X0021769Y0189754D01*
X0021769Y0194358D02*
X0018700Y0194358D01*
X0020235Y0194358D02*
X0021769Y0195893D01*
X0021769Y0196660D01*
X0021002Y0198195D02*
X0019467Y0198195D01*
X0018700Y0198962D01*
X0018700Y0200497D01*
X0019467Y0201264D01*
X0021002Y0201264D01*
X0021769Y0200497D01*
X0021769Y0198962D01*
X0021002Y0198195D01*
X0021769Y0202799D02*
X0021769Y0204333D01*
X0022537Y0203566D02*
X0019467Y0203566D01*
X0018700Y0204333D01*
X0019467Y0205868D02*
X0018700Y0206635D01*
X0018700Y0208170D01*
X0019467Y0208937D01*
X0021002Y0208937D01*
X0021769Y0208170D01*
X0021769Y0206635D01*
X0021002Y0205868D01*
X0019467Y0205868D01*
X0021769Y0210472D02*
X0021769Y0212006D01*
X0022537Y0211239D02*
X0019467Y0211239D01*
X0018700Y0212006D01*
X0019467Y0213541D02*
X0018700Y0214308D01*
X0018700Y0216610D01*
X0017933Y0216610D02*
X0017165Y0215843D01*
X0017165Y0215076D01*
X0017933Y0216610D02*
X0021769Y0216610D01*
X0021769Y0218145D02*
X0021769Y0220447D01*
X0021002Y0221214D01*
X0019467Y0221214D01*
X0018700Y0220447D01*
X0018700Y0218145D01*
X0017165Y0218145D02*
X0021769Y0218145D01*
X0021769Y0213541D02*
X0019467Y0213541D01*
X0019467Y0222749D02*
X0021002Y0222749D01*
X0021769Y0223516D01*
X0021769Y0225051D01*
X0021002Y0225818D01*
X0020235Y0225818D01*
X0020235Y0222749D01*
X0019467Y0222749D02*
X0018700Y0223516D01*
X0018700Y0225051D01*
X0021769Y0124532D02*
X0021769Y0122230D01*
X0021002Y0121463D01*
X0018700Y0103047D02*
X0023304Y0103047D01*
D12*
X0027827Y0097302D02*
X0027827Y0095834D01*
X0028561Y0095100D01*
X0029295Y0095834D01*
X0029295Y0097302D01*
X0030037Y0097302D02*
X0031505Y0097302D01*
X0031505Y0096201D01*
X0030771Y0096568D01*
X0030404Y0096568D01*
X0030037Y0096201D01*
X0030037Y0095467D01*
X0030404Y0095100D01*
X0031138Y0095100D01*
X0031505Y0095467D01*
X0032247Y0096201D02*
X0033715Y0096201D01*
X0032981Y0096935D02*
X0032981Y0095467D01*
X0085986Y0074902D02*
X0085986Y0072700D01*
X0087454Y0074902D01*
X0087454Y0072700D01*
X0088193Y0072700D02*
X0088927Y0072700D01*
X0088560Y0072700D02*
X0088560Y0074902D01*
X0088927Y0074902D02*
X0088193Y0074902D01*
X0089669Y0074535D02*
X0090036Y0074902D01*
X0091137Y0074902D01*
X0091137Y0072700D01*
X0090036Y0072700D01*
X0089669Y0073067D01*
X0089669Y0074535D01*
X0091879Y0074902D02*
X0091879Y0072700D01*
X0093347Y0074902D01*
X0093347Y0072700D01*
X0094088Y0073067D02*
X0094455Y0072700D01*
X0095189Y0072700D01*
X0095556Y0073067D01*
X0095189Y0073801D02*
X0094455Y0073801D01*
X0094088Y0073434D01*
X0094088Y0073067D01*
X0095189Y0073801D02*
X0095556Y0074168D01*
X0095556Y0074535D01*
X0095189Y0074902D01*
X0094455Y0074902D01*
X0094088Y0074535D01*
X0097827Y0074902D02*
X0097827Y0073434D01*
X0098561Y0072700D01*
X0099295Y0073434D01*
X0099295Y0074902D01*
X0100037Y0074902D02*
X0101505Y0074902D01*
X0101505Y0073801D01*
X0100771Y0074168D01*
X0100404Y0074168D01*
X0100037Y0073801D01*
X0100037Y0073067D01*
X0100404Y0072700D01*
X0101138Y0072700D01*
X0101505Y0073067D01*
X0102247Y0073801D02*
X0103715Y0073801D01*
X0102981Y0074535D02*
X0102981Y0073067D01*
X0107827Y0073434D02*
X0108561Y0072700D01*
X0109295Y0073434D01*
X0109295Y0074902D01*
X0110037Y0074902D02*
X0111505Y0074902D01*
X0111505Y0073801D01*
X0110771Y0074168D01*
X0110404Y0074168D01*
X0110037Y0073801D01*
X0110037Y0073067D01*
X0110404Y0072700D01*
X0111138Y0072700D01*
X0111505Y0073067D01*
X0112247Y0073801D02*
X0113715Y0073801D01*
X0112981Y0074535D02*
X0112981Y0073067D01*
X0117827Y0073067D02*
X0118194Y0072700D01*
X0119295Y0072700D01*
X0119295Y0074902D01*
X0118194Y0074902D01*
X0117827Y0074535D01*
X0117827Y0073067D01*
X0120037Y0072700D02*
X0120037Y0074902D01*
X0121505Y0074902D02*
X0120037Y0072700D01*
X0121505Y0072700D02*
X0121505Y0074902D01*
X0122247Y0074535D02*
X0122614Y0074902D01*
X0123348Y0074902D01*
X0123715Y0074535D01*
X0123715Y0073067D01*
X0123348Y0072700D01*
X0122614Y0072700D01*
X0122247Y0073067D01*
X0122247Y0073801D01*
X0122981Y0073801D01*
X0127827Y0074535D02*
X0128194Y0074902D01*
X0129295Y0074902D01*
X0129295Y0072700D01*
X0128194Y0072700D01*
X0127827Y0073067D01*
X0127827Y0074535D01*
X0130037Y0074902D02*
X0130037Y0072700D01*
X0131505Y0074902D01*
X0131505Y0072700D01*
X0132247Y0073067D02*
X0132614Y0072700D01*
X0133348Y0072700D01*
X0133715Y0073067D01*
X0133715Y0074535D01*
X0133348Y0074902D01*
X0132614Y0074902D01*
X0132247Y0074535D01*
X0132247Y0073801D02*
X0132981Y0073801D01*
X0132247Y0073801D02*
X0132247Y0073067D01*
X0138932Y0074535D02*
X0140400Y0073067D01*
X0140400Y0072700D01*
X0141142Y0073067D02*
X0141509Y0072700D01*
X0142610Y0072700D01*
X0142610Y0074902D01*
X0141509Y0074902D01*
X0141142Y0074535D01*
X0141142Y0073067D01*
X0140400Y0074902D02*
X0138932Y0074902D01*
X0138932Y0074535D01*
X0148932Y0074902D02*
X0150400Y0074902D01*
X0150400Y0073801D01*
X0149666Y0074168D01*
X0149299Y0074168D01*
X0148932Y0073801D01*
X0148932Y0073067D01*
X0149299Y0072700D01*
X0150033Y0072700D01*
X0150400Y0073067D01*
X0151142Y0073067D02*
X0151142Y0074535D01*
X0151509Y0074902D01*
X0152610Y0074902D01*
X0152610Y0072700D01*
X0151509Y0072700D01*
X0151142Y0073067D01*
X0158932Y0073067D02*
X0159299Y0072700D01*
X0160033Y0072700D01*
X0160400Y0073067D01*
X0161142Y0073067D02*
X0161142Y0074535D01*
X0161509Y0074902D01*
X0162610Y0074902D01*
X0162610Y0072700D01*
X0161509Y0072700D01*
X0161142Y0073067D01*
X0160400Y0074535D02*
X0160033Y0074902D01*
X0159299Y0074902D01*
X0158932Y0074535D01*
X0158932Y0074168D01*
X0159299Y0073801D01*
X0158932Y0073434D01*
X0158932Y0073067D01*
X0159299Y0073801D02*
X0159666Y0073801D01*
X0168932Y0072700D02*
X0170400Y0072700D01*
X0169666Y0072700D02*
X0169666Y0074902D01*
X0170400Y0074168D01*
X0171142Y0074535D02*
X0171509Y0074902D01*
X0172610Y0074902D01*
X0172610Y0072700D01*
X0171509Y0072700D01*
X0171142Y0073067D01*
X0171142Y0074535D01*
X0178932Y0074902D02*
X0180400Y0074902D01*
X0180400Y0073801D01*
X0179666Y0074168D01*
X0179299Y0074168D01*
X0178932Y0073801D01*
X0178932Y0073067D01*
X0179299Y0072700D01*
X0180033Y0072700D01*
X0180400Y0073067D01*
X0181142Y0072700D02*
X0181142Y0074168D01*
X0181876Y0074902D01*
X0182610Y0074168D01*
X0182610Y0072700D01*
X0182610Y0073801D02*
X0181142Y0073801D01*
X0188932Y0074168D02*
X0189299Y0073801D01*
X0188932Y0073434D01*
X0188932Y0073067D01*
X0189299Y0072700D01*
X0190033Y0072700D01*
X0190400Y0073067D01*
X0191142Y0072700D02*
X0191142Y0074168D01*
X0191876Y0074902D01*
X0192610Y0074168D01*
X0192610Y0072700D01*
X0192610Y0073801D02*
X0191142Y0073801D01*
X0190400Y0074535D02*
X0190033Y0074902D01*
X0189299Y0074902D01*
X0188932Y0074535D01*
X0188932Y0074168D01*
X0189299Y0073801D02*
X0189666Y0073801D01*
X0198932Y0072700D02*
X0200400Y0072700D01*
X0199666Y0072700D02*
X0199666Y0074902D01*
X0200400Y0074168D01*
X0201142Y0074168D02*
X0201142Y0072700D01*
X0201142Y0073801D02*
X0202610Y0073801D01*
X0202610Y0074168D02*
X0201876Y0074902D01*
X0201142Y0074168D01*
X0202610Y0074168D02*
X0202610Y0072700D01*
X0207827Y0073801D02*
X0209295Y0073801D01*
X0208194Y0074902D01*
X0208194Y0072700D01*
X0210037Y0072700D02*
X0211505Y0072700D01*
X0210771Y0072700D02*
X0210771Y0074902D01*
X0211505Y0074168D01*
X0212247Y0074168D02*
X0212247Y0072700D01*
X0212247Y0073801D02*
X0213715Y0073801D01*
X0213715Y0074168D02*
X0212981Y0074902D01*
X0212247Y0074168D01*
X0213715Y0074168D02*
X0213715Y0072700D01*
X0217827Y0072700D02*
X0219295Y0072700D01*
X0217827Y0074168D01*
X0217827Y0074535D01*
X0218194Y0074902D01*
X0218928Y0074902D01*
X0219295Y0074535D01*
X0220771Y0074902D02*
X0220771Y0072700D01*
X0221505Y0072700D02*
X0220037Y0072700D01*
X0221505Y0074168D02*
X0220771Y0074902D01*
X0222247Y0074168D02*
X0222247Y0072700D01*
X0222247Y0073801D02*
X0223715Y0073801D01*
X0223715Y0074168D02*
X0222981Y0074902D01*
X0222247Y0074168D01*
X0223715Y0074168D02*
X0223715Y0072700D01*
X0228932Y0074535D02*
X0230400Y0073067D01*
X0230400Y0072700D01*
X0231142Y0072700D02*
X0231142Y0074168D01*
X0231876Y0074902D01*
X0232610Y0074168D01*
X0232610Y0072700D01*
X0232610Y0073801D02*
X0231142Y0073801D01*
X0230400Y0074902D02*
X0228932Y0074902D01*
X0228932Y0074535D01*
X0237827Y0072700D02*
X0239295Y0072700D01*
X0238561Y0072700D02*
X0238561Y0074902D01*
X0239295Y0074168D01*
X0240037Y0072700D02*
X0241505Y0072700D01*
X0240771Y0072700D02*
X0240771Y0074902D01*
X0241505Y0074168D01*
X0242247Y0074168D02*
X0242247Y0072700D01*
X0242247Y0073801D02*
X0243715Y0073801D01*
X0243715Y0074168D02*
X0242981Y0074902D01*
X0242247Y0074168D01*
X0243715Y0074168D02*
X0243715Y0072700D01*
X0248932Y0073067D02*
X0248932Y0074535D01*
X0249299Y0074902D01*
X0250033Y0074902D01*
X0250400Y0074535D01*
X0250400Y0074168D01*
X0250033Y0073801D01*
X0248932Y0073801D01*
X0248932Y0073067D02*
X0249299Y0072700D01*
X0250033Y0072700D01*
X0250400Y0073067D01*
X0251142Y0072700D02*
X0251142Y0074168D01*
X0251876Y0074902D01*
X0252610Y0074168D01*
X0252610Y0072700D01*
X0252610Y0073801D02*
X0251142Y0073801D01*
X0255617Y0074902D02*
X0257085Y0074902D01*
X0256351Y0074902D02*
X0256351Y0072700D01*
X0257827Y0072700D02*
X0259295Y0072700D01*
X0259295Y0074902D01*
X0257827Y0074902D01*
X0258561Y0073801D02*
X0259295Y0073801D01*
X0260037Y0073434D02*
X0260037Y0073067D01*
X0260404Y0072700D01*
X0261138Y0072700D01*
X0261505Y0073067D01*
X0261138Y0073801D02*
X0260404Y0073801D01*
X0260037Y0073434D01*
X0260037Y0074535D02*
X0260404Y0074902D01*
X0261138Y0074902D01*
X0261505Y0074535D01*
X0261505Y0074168D01*
X0261138Y0073801D01*
X0262247Y0074902D02*
X0263715Y0074902D01*
X0263715Y0072700D01*
X0262247Y0072700D01*
X0262981Y0073801D02*
X0263715Y0073801D01*
X0264457Y0073801D02*
X0264824Y0073434D01*
X0265925Y0073434D01*
X0265925Y0072700D02*
X0265925Y0074902D01*
X0264824Y0074902D01*
X0264457Y0074535D01*
X0264457Y0073801D01*
X0265191Y0073434D02*
X0264457Y0072700D01*
X0268932Y0072700D02*
X0269666Y0073434D01*
X0269299Y0073434D02*
X0270400Y0073434D01*
X0270400Y0072700D02*
X0270400Y0074902D01*
X0269299Y0074902D01*
X0268932Y0074535D01*
X0268932Y0073801D01*
X0269299Y0073434D01*
X0271142Y0072700D02*
X0271142Y0074902D01*
X0272610Y0074902D02*
X0272610Y0072700D01*
X0271876Y0073434D01*
X0271142Y0072700D01*
X0277091Y0072700D02*
X0277824Y0073434D01*
X0277091Y0073067D02*
X0277458Y0072700D01*
X0278191Y0072700D01*
X0278558Y0073067D01*
X0278558Y0074535D01*
X0278191Y0074902D01*
X0277458Y0074902D01*
X0277091Y0074535D01*
X0277091Y0073067D01*
X0279300Y0072700D02*
X0280034Y0073434D01*
X0279667Y0073434D02*
X0280768Y0073434D01*
X0280768Y0072700D02*
X0280768Y0074902D01*
X0279667Y0074902D01*
X0279300Y0074535D01*
X0279300Y0073801D01*
X0279667Y0073434D01*
X0281510Y0073067D02*
X0281877Y0072700D01*
X0282611Y0072700D01*
X0282978Y0073067D01*
X0282978Y0074535D01*
X0282611Y0074902D01*
X0281877Y0074902D01*
X0281510Y0074535D01*
X0281510Y0073067D01*
X0283717Y0072700D02*
X0284451Y0072700D01*
X0284084Y0072700D02*
X0284084Y0074902D01*
X0284451Y0074902D02*
X0283717Y0074902D01*
X0288932Y0072700D02*
X0290400Y0072700D01*
X0289666Y0072700D02*
X0289666Y0074902D01*
X0290400Y0074168D01*
X0291142Y0074902D02*
X0291142Y0072700D01*
X0292610Y0072700D02*
X0292610Y0074902D01*
X0291876Y0074168D01*
X0291142Y0074902D01*
X0297091Y0074902D02*
X0298558Y0074902D01*
X0297824Y0074902D02*
X0297824Y0072700D01*
X0299298Y0072700D02*
X0300032Y0072700D01*
X0299665Y0072700D02*
X0299665Y0074902D01*
X0300032Y0074902D02*
X0299298Y0074902D01*
X0300774Y0074168D02*
X0300774Y0072700D01*
X0300774Y0073801D02*
X0302242Y0073801D01*
X0302242Y0074168D02*
X0301508Y0074902D01*
X0300774Y0074168D01*
X0302242Y0074168D02*
X0302242Y0072700D01*
X0302984Y0072700D02*
X0302984Y0074902D01*
X0304451Y0074902D02*
X0304451Y0072700D01*
X0303717Y0073434D01*
X0302984Y0072700D01*
X0306722Y0072700D02*
X0308190Y0072700D01*
X0306722Y0074168D01*
X0306722Y0074535D01*
X0307089Y0074902D01*
X0307823Y0074902D01*
X0308190Y0074535D01*
X0309666Y0074902D02*
X0309666Y0072700D01*
X0310400Y0072700D02*
X0308932Y0072700D01*
X0310400Y0074168D02*
X0309666Y0074902D01*
X0311142Y0074535D02*
X0311509Y0074902D01*
X0312243Y0074902D01*
X0312610Y0074535D01*
X0312610Y0074168D01*
X0312243Y0073801D01*
X0311509Y0073801D01*
X0311142Y0073434D01*
X0311142Y0073067D01*
X0311509Y0072700D01*
X0312243Y0072700D01*
X0312610Y0073067D01*
X0313352Y0073067D02*
X0313719Y0072700D01*
X0314453Y0072700D01*
X0314820Y0073067D01*
X0314820Y0074535D01*
X0314453Y0074902D01*
X0313719Y0074902D01*
X0313352Y0074535D01*
X0317827Y0072700D02*
X0319295Y0072700D01*
X0318561Y0072700D02*
X0318561Y0074902D01*
X0319295Y0074168D01*
X0320037Y0074535D02*
X0320404Y0074902D01*
X0321138Y0074902D01*
X0321505Y0074535D01*
X0321505Y0074168D01*
X0321138Y0073801D01*
X0320404Y0073801D01*
X0320037Y0073434D01*
X0320037Y0073067D01*
X0320404Y0072700D01*
X0321138Y0072700D01*
X0321505Y0073067D01*
X0322247Y0073067D02*
X0322614Y0072700D01*
X0323348Y0072700D01*
X0323715Y0073067D01*
X0323715Y0074535D01*
X0323348Y0074902D01*
X0322614Y0074902D01*
X0322247Y0074535D01*
X0322613Y0054902D02*
X0323347Y0054902D01*
X0322980Y0054902D02*
X0322980Y0052700D01*
X0323347Y0052700D02*
X0322613Y0052700D01*
X0321873Y0052700D02*
X0321873Y0054902D01*
X0320405Y0052700D01*
X0320405Y0054902D01*
X0319663Y0054902D02*
X0318195Y0054902D01*
X0318929Y0054902D02*
X0318929Y0052700D01*
X0315925Y0052700D02*
X0315925Y0054902D01*
X0314824Y0054902D01*
X0314457Y0054535D01*
X0314457Y0054168D01*
X0314824Y0053801D01*
X0315925Y0053801D01*
X0315925Y0052700D02*
X0314824Y0052700D01*
X0314457Y0053067D01*
X0314457Y0053434D01*
X0314824Y0053801D01*
X0313715Y0053067D02*
X0313348Y0052700D01*
X0312614Y0052700D01*
X0312247Y0053067D01*
X0312247Y0054902D01*
X0311505Y0054535D02*
X0311505Y0054168D01*
X0311138Y0053801D01*
X0310404Y0053801D01*
X0310037Y0053434D01*
X0310037Y0053067D01*
X0310404Y0052700D01*
X0311138Y0052700D01*
X0311505Y0053067D01*
X0311505Y0054535D02*
X0311138Y0054902D01*
X0310404Y0054902D01*
X0310037Y0054535D01*
X0309295Y0054902D02*
X0309295Y0052700D01*
X0308194Y0052700D01*
X0307827Y0053067D01*
X0307827Y0054535D01*
X0308194Y0054902D01*
X0309295Y0054902D01*
X0307085Y0054902D02*
X0305984Y0054902D01*
X0305617Y0054535D01*
X0305617Y0053801D01*
X0305984Y0053434D01*
X0307085Y0053434D01*
X0306351Y0053434D02*
X0305617Y0052700D01*
X0304820Y0052700D02*
X0304820Y0054902D01*
X0304086Y0054168D01*
X0303352Y0054902D01*
X0303352Y0052700D01*
X0302610Y0052700D02*
X0302610Y0054902D01*
X0301509Y0054902D01*
X0301142Y0054535D01*
X0301142Y0053801D01*
X0301509Y0053434D01*
X0302610Y0053434D01*
X0301876Y0053434D02*
X0301142Y0052700D01*
X0300400Y0052700D02*
X0300400Y0054902D01*
X0298932Y0054902D01*
X0298190Y0054535D02*
X0297823Y0054902D01*
X0297089Y0054902D01*
X0296722Y0054535D01*
X0296722Y0053067D01*
X0297089Y0052700D01*
X0297823Y0052700D01*
X0298190Y0053067D01*
X0298190Y0054535D01*
X0297456Y0053434D02*
X0296722Y0052700D01*
X0298932Y0052700D02*
X0300400Y0052700D01*
X0300400Y0053801D02*
X0299666Y0053801D01*
X0292610Y0053434D02*
X0291509Y0053434D01*
X0291142Y0053801D01*
X0291142Y0054535D01*
X0291509Y0054902D01*
X0292610Y0054902D01*
X0292610Y0052700D01*
X0291876Y0053434D02*
X0291142Y0052700D01*
X0290400Y0052700D02*
X0289299Y0052700D01*
X0288932Y0053067D01*
X0288932Y0054535D01*
X0289299Y0054902D01*
X0290400Y0054902D01*
X0290400Y0052700D01*
X0282610Y0052700D02*
X0282610Y0054902D01*
X0281142Y0052700D01*
X0281142Y0054902D01*
X0280400Y0054535D02*
X0280400Y0053067D01*
X0280033Y0052700D01*
X0279299Y0052700D01*
X0278932Y0053067D01*
X0278932Y0054535D02*
X0279299Y0054902D01*
X0280033Y0054902D01*
X0280400Y0054535D01*
X0273715Y0054168D02*
X0273715Y0052700D01*
X0273715Y0053801D02*
X0272247Y0053801D01*
X0272247Y0054168D02*
X0272247Y0052700D01*
X0271505Y0052700D02*
X0270037Y0052700D01*
X0270771Y0052700D02*
X0270771Y0054902D01*
X0271505Y0054168D01*
X0272247Y0054168D02*
X0272981Y0054902D01*
X0273715Y0054168D01*
X0269295Y0053801D02*
X0268561Y0054168D01*
X0268194Y0054168D01*
X0267827Y0053801D01*
X0267827Y0053067D01*
X0268194Y0052700D01*
X0268928Y0052700D01*
X0269295Y0053067D01*
X0269295Y0053801D02*
X0269295Y0054902D01*
X0267827Y0054902D01*
X0263715Y0054168D02*
X0263715Y0052700D01*
X0263715Y0053801D02*
X0262247Y0053801D01*
X0262247Y0054168D02*
X0262247Y0052700D01*
X0261505Y0052700D02*
X0260037Y0052700D01*
X0260771Y0052700D02*
X0260771Y0054902D01*
X0261505Y0054168D01*
X0262247Y0054168D02*
X0262981Y0054902D01*
X0263715Y0054168D01*
X0259295Y0054535D02*
X0259295Y0053067D01*
X0257827Y0054535D01*
X0257827Y0053067D01*
X0258194Y0052700D01*
X0258928Y0052700D01*
X0259295Y0053067D01*
X0259295Y0054535D02*
X0258928Y0054902D01*
X0258194Y0054902D01*
X0257827Y0054535D01*
X0252610Y0054168D02*
X0252610Y0052700D01*
X0252610Y0053801D02*
X0251142Y0053801D01*
X0251142Y0054168D02*
X0251142Y0052700D01*
X0250400Y0053067D02*
X0250033Y0052700D01*
X0249299Y0052700D01*
X0248932Y0053067D01*
X0248932Y0053434D01*
X0249299Y0053801D01*
X0250400Y0053801D01*
X0250400Y0053067D01*
X0250400Y0053801D02*
X0249666Y0054535D01*
X0248932Y0054902D01*
X0251142Y0054168D02*
X0251876Y0054902D01*
X0252610Y0054168D01*
X0242610Y0054168D02*
X0242610Y0052700D01*
X0242610Y0053801D02*
X0241142Y0053801D01*
X0241142Y0054168D02*
X0241142Y0052700D01*
X0240400Y0053067D02*
X0240400Y0053434D01*
X0240033Y0053801D01*
X0239299Y0053801D01*
X0238932Y0053434D01*
X0238932Y0053067D01*
X0239299Y0052700D01*
X0240033Y0052700D01*
X0240400Y0053067D01*
X0240033Y0053801D02*
X0240400Y0054168D01*
X0240400Y0054535D01*
X0240033Y0054902D01*
X0239299Y0054902D01*
X0238932Y0054535D01*
X0238932Y0054168D01*
X0239299Y0053801D01*
X0241142Y0054168D02*
X0241876Y0054902D01*
X0242610Y0054168D01*
X0233715Y0054168D02*
X0233715Y0052700D01*
X0233715Y0053801D02*
X0232247Y0053801D01*
X0232247Y0054168D02*
X0232247Y0052700D01*
X0231505Y0052700D02*
X0230037Y0052700D01*
X0230771Y0052700D02*
X0230771Y0054902D01*
X0231505Y0054168D01*
X0232247Y0054168D02*
X0232981Y0054902D01*
X0233715Y0054168D01*
X0229295Y0054535D02*
X0228928Y0054902D01*
X0228194Y0054902D01*
X0227827Y0054535D01*
X0227827Y0054168D01*
X0228194Y0053801D01*
X0227827Y0053434D01*
X0227827Y0053067D01*
X0228194Y0052700D01*
X0228928Y0052700D01*
X0229295Y0053067D01*
X0228561Y0053801D02*
X0228194Y0053801D01*
X0222610Y0053801D02*
X0221142Y0053801D01*
X0221142Y0054168D02*
X0221142Y0052700D01*
X0220400Y0053067D02*
X0218932Y0054535D01*
X0218932Y0053067D01*
X0219299Y0052700D01*
X0220033Y0052700D01*
X0220400Y0053067D01*
X0220400Y0054535D01*
X0220033Y0054902D01*
X0219299Y0054902D01*
X0218932Y0054535D01*
X0221142Y0054168D02*
X0221876Y0054902D01*
X0222610Y0054168D01*
X0222610Y0052700D01*
X0212610Y0052700D02*
X0212610Y0054168D01*
X0211876Y0054902D01*
X0211142Y0054168D01*
X0211142Y0052700D01*
X0210400Y0052700D02*
X0208932Y0054168D01*
X0208932Y0054535D01*
X0209299Y0054902D01*
X0210033Y0054902D01*
X0210400Y0054535D01*
X0211142Y0053801D02*
X0212610Y0053801D01*
X0210400Y0052700D02*
X0208932Y0052700D01*
X0202610Y0052700D02*
X0202610Y0054168D01*
X0201876Y0054902D01*
X0201142Y0054168D01*
X0201142Y0052700D01*
X0201142Y0053801D02*
X0202610Y0053801D01*
X0200400Y0053801D02*
X0198932Y0053801D01*
X0199299Y0054902D02*
X0200400Y0053801D01*
X0199299Y0052700D02*
X0199299Y0054902D01*
X0192610Y0054902D02*
X0192610Y0052700D01*
X0191509Y0052700D01*
X0191142Y0053067D01*
X0191142Y0054535D01*
X0191509Y0054902D01*
X0192610Y0054902D01*
X0190400Y0054535D02*
X0190400Y0053067D01*
X0188932Y0054535D01*
X0188932Y0053067D01*
X0189299Y0052700D01*
X0190033Y0052700D01*
X0190400Y0053067D01*
X0190400Y0054535D02*
X0190033Y0054902D01*
X0189299Y0054902D01*
X0188932Y0054535D01*
X0182610Y0054902D02*
X0182610Y0052700D01*
X0181509Y0052700D01*
X0181142Y0053067D01*
X0181142Y0054535D01*
X0181509Y0054902D01*
X0182610Y0054902D01*
X0180400Y0054535D02*
X0180033Y0054902D01*
X0179299Y0054902D01*
X0178932Y0054535D01*
X0178932Y0054168D01*
X0180400Y0052700D01*
X0178932Y0052700D01*
X0172610Y0052700D02*
X0171509Y0052700D01*
X0171142Y0053067D01*
X0171142Y0054535D01*
X0171509Y0054902D01*
X0172610Y0054902D01*
X0172610Y0052700D01*
X0170400Y0053801D02*
X0168932Y0053801D01*
X0169299Y0054902D02*
X0170400Y0053801D01*
X0169299Y0052700D02*
X0169299Y0054902D01*
X0162610Y0054902D02*
X0162610Y0052700D01*
X0161509Y0052700D01*
X0161142Y0053067D01*
X0161142Y0054535D01*
X0161509Y0054902D01*
X0162610Y0054902D01*
X0160400Y0053801D02*
X0160400Y0053067D01*
X0160033Y0052700D01*
X0159299Y0052700D01*
X0158932Y0053067D01*
X0158932Y0053434D01*
X0159299Y0053801D01*
X0160400Y0053801D01*
X0159666Y0054535D01*
X0158932Y0054902D01*
X0155925Y0054535D02*
X0155925Y0053067D01*
X0155558Y0052700D01*
X0154824Y0052700D01*
X0154457Y0053067D01*
X0153715Y0052700D02*
X0152247Y0052700D01*
X0151505Y0053067D02*
X0151138Y0052700D01*
X0150404Y0052700D01*
X0150037Y0053067D01*
X0150037Y0054535D01*
X0150404Y0054902D01*
X0151138Y0054902D01*
X0151505Y0054535D01*
X0151505Y0053067D01*
X0149295Y0053067D02*
X0148928Y0052700D01*
X0148194Y0052700D01*
X0147827Y0053067D01*
X0147085Y0053434D02*
X0145617Y0054902D01*
X0147085Y0054902D02*
X0147085Y0052700D01*
X0146718Y0053801D02*
X0145617Y0052700D01*
X0143715Y0053067D02*
X0143348Y0052700D01*
X0142614Y0052700D01*
X0142247Y0053067D01*
X0142247Y0053434D01*
X0142614Y0053801D01*
X0143348Y0053801D01*
X0143715Y0054168D01*
X0143715Y0054535D01*
X0143348Y0054902D01*
X0142614Y0054902D01*
X0142247Y0054535D01*
X0141505Y0054902D02*
X0141505Y0052700D01*
X0140771Y0053434D01*
X0140037Y0052700D01*
X0140037Y0054902D01*
X0139295Y0054168D02*
X0138561Y0054902D01*
X0138561Y0052700D01*
X0139295Y0052700D02*
X0137827Y0052700D01*
X0133715Y0053067D02*
X0133348Y0052700D01*
X0132614Y0052700D01*
X0132247Y0053067D01*
X0132247Y0053434D01*
X0132614Y0053801D01*
X0133348Y0053801D01*
X0133715Y0054168D01*
X0133715Y0054535D01*
X0133348Y0054902D01*
X0132614Y0054902D01*
X0132247Y0054535D01*
X0131505Y0054902D02*
X0131505Y0052700D01*
X0130771Y0053434D01*
X0130037Y0052700D01*
X0130037Y0054902D01*
X0129295Y0054535D02*
X0128928Y0054902D01*
X0128194Y0054902D01*
X0127827Y0054535D01*
X0127827Y0054168D01*
X0129295Y0052700D01*
X0127827Y0052700D01*
X0124820Y0053801D02*
X0123352Y0053801D01*
X0122610Y0054168D02*
X0121876Y0054902D01*
X0121876Y0052700D01*
X0122610Y0052700D02*
X0121142Y0052700D01*
X0120400Y0052700D02*
X0118932Y0054168D01*
X0118932Y0054535D01*
X0119299Y0054902D01*
X0120033Y0054902D01*
X0120400Y0054535D01*
X0120400Y0052700D02*
X0118932Y0052700D01*
X0118190Y0053434D02*
X0118190Y0054902D01*
X0116722Y0054902D02*
X0116722Y0053434D01*
X0117456Y0052700D01*
X0118190Y0053434D01*
X0114820Y0053801D02*
X0113352Y0053801D01*
X0112610Y0054168D02*
X0111876Y0054902D01*
X0111876Y0052700D01*
X0112610Y0052700D02*
X0111142Y0052700D01*
X0110400Y0052700D02*
X0108932Y0054168D01*
X0108932Y0054535D01*
X0109299Y0054902D01*
X0110033Y0054902D01*
X0110400Y0054535D01*
X0110400Y0052700D02*
X0108932Y0052700D01*
X0108190Y0053434D02*
X0107456Y0052700D01*
X0106722Y0053434D01*
X0106722Y0054902D01*
X0108190Y0054902D02*
X0108190Y0053434D01*
X0124086Y0053067D02*
X0124086Y0054535D01*
X0147827Y0054535D02*
X0148194Y0054902D01*
X0148928Y0054902D01*
X0149295Y0054535D01*
X0149295Y0053067D01*
X0153715Y0052700D02*
X0153715Y0054902D01*
X0154457Y0054535D02*
X0154824Y0054902D01*
X0155558Y0054902D01*
X0155925Y0054535D01*
X0107827Y0073434D02*
X0107827Y0074902D01*
X0307085Y0054902D02*
X0307085Y0052700D01*
X0313715Y0053067D02*
X0313715Y0054902D01*
X0326722Y0054902D02*
X0326722Y0052700D01*
X0326722Y0053801D02*
X0328190Y0053801D01*
X0328932Y0053434D02*
X0329299Y0053801D01*
X0330033Y0053801D01*
X0330400Y0054168D01*
X0330400Y0054535D01*
X0330033Y0054902D01*
X0329299Y0054902D01*
X0328932Y0054535D01*
X0328190Y0054902D02*
X0328190Y0052700D01*
X0328932Y0053067D02*
X0329299Y0052700D01*
X0330033Y0052700D01*
X0330400Y0053067D01*
X0328932Y0053067D02*
X0328932Y0053434D01*
X0331142Y0054902D02*
X0332610Y0054902D01*
X0332610Y0052700D01*
X0333352Y0052700D02*
X0334086Y0053434D01*
X0333719Y0053434D02*
X0334820Y0053434D01*
X0334820Y0052700D02*
X0334820Y0054902D01*
X0333719Y0054902D01*
X0333352Y0054535D01*
X0333352Y0053801D01*
X0333719Y0053434D01*
X0332610Y0053801D02*
X0331876Y0053801D01*
X0335617Y0052700D02*
X0337085Y0052700D01*
X0337085Y0054902D01*
X0337827Y0054535D02*
X0338194Y0054902D01*
X0338928Y0054902D01*
X0339295Y0054535D01*
X0339295Y0054168D01*
X0338928Y0053801D01*
X0338194Y0053801D01*
X0337827Y0053434D01*
X0337827Y0053067D01*
X0338194Y0052700D01*
X0338928Y0052700D01*
X0339295Y0053067D01*
X0340771Y0052700D02*
X0340771Y0054902D01*
X0341505Y0054902D02*
X0340037Y0054902D01*
X0342247Y0052700D02*
X0343715Y0052700D01*
X0343715Y0054902D01*
X0344457Y0054535D02*
X0344824Y0054902D01*
X0345558Y0054902D01*
X0345925Y0054535D01*
X0345925Y0054168D01*
X0345558Y0053801D01*
X0344824Y0053801D01*
X0344457Y0053434D01*
X0344457Y0053067D01*
X0344824Y0052700D01*
X0345558Y0052700D01*
X0345925Y0053067D01*
X0347827Y0052700D02*
X0349295Y0052700D01*
X0347827Y0054168D01*
X0347827Y0054535D01*
X0348194Y0054902D01*
X0348928Y0054902D01*
X0349295Y0054535D01*
X0350037Y0054535D02*
X0350404Y0054902D01*
X0351138Y0054902D01*
X0351505Y0054535D01*
X0351505Y0054168D01*
X0351138Y0053801D01*
X0350404Y0053801D01*
X0350037Y0053434D01*
X0350037Y0053067D01*
X0350404Y0052700D01*
X0351138Y0052700D01*
X0351505Y0053067D01*
X0352247Y0053067D02*
X0352614Y0052700D01*
X0353348Y0052700D01*
X0353715Y0053067D01*
X0353715Y0054535D01*
X0353348Y0054902D01*
X0352614Y0054902D01*
X0352247Y0054535D01*
X0387827Y0075467D02*
X0388194Y0075100D01*
X0389295Y0075100D01*
X0389295Y0077302D01*
X0388194Y0077302D01*
X0387827Y0076935D01*
X0387827Y0075467D01*
X0387827Y0076935D01*
X0388194Y0077302D01*
X0389295Y0077302D01*
X0389295Y0075100D01*
X0388194Y0075100D01*
X0387827Y0075467D01*
X0390037Y0075100D02*
X0390037Y0077302D01*
X0390037Y0075100D01*
X0391505Y0077302D01*
X0391505Y0075100D01*
X0391505Y0077302D01*
X0390037Y0075100D01*
X0392247Y0075467D02*
X0392247Y0076201D01*
X0392981Y0076201D01*
X0392247Y0076201D01*
X0392247Y0075467D01*
X0392614Y0075100D01*
X0393348Y0075100D01*
X0393715Y0075467D01*
X0393715Y0076935D01*
X0393348Y0077302D01*
X0392614Y0077302D01*
X0392247Y0076935D01*
X0392614Y0077302D01*
X0393348Y0077302D01*
X0393715Y0076935D01*
X0393715Y0075467D01*
X0393348Y0075100D01*
X0392614Y0075100D01*
X0392247Y0075467D01*
X0392614Y0231100D02*
X0392247Y0231467D01*
X0392247Y0232201D01*
X0392981Y0232201D01*
X0393715Y0232935D02*
X0393715Y0231467D01*
X0393348Y0231100D01*
X0392614Y0231100D01*
X0391505Y0231100D02*
X0391505Y0233302D01*
X0390037Y0231100D01*
X0390037Y0233302D01*
X0389295Y0233302D02*
X0388194Y0233302D01*
X0387827Y0232935D01*
X0387827Y0231467D01*
X0388194Y0231100D01*
X0389295Y0231100D01*
X0389295Y0233302D01*
X0392247Y0232935D02*
X0392614Y0233302D01*
X0393348Y0233302D01*
X0393715Y0232935D01*
X0033715Y0232201D02*
X0032247Y0232201D01*
X0031505Y0232201D02*
X0030771Y0232568D01*
X0030404Y0232568D01*
X0030037Y0232201D01*
X0030037Y0231467D01*
X0030404Y0231100D01*
X0031138Y0231100D01*
X0031505Y0231467D01*
X0031505Y0232201D02*
X0031505Y0233302D01*
X0030037Y0233302D01*
X0029295Y0233302D02*
X0029295Y0231834D01*
X0028561Y0231100D01*
X0027827Y0231834D01*
X0027827Y0233302D01*
X0032981Y0232935D02*
X0032981Y0231467D01*
D13*
X0057298Y0068052D02*
X0059233Y0068052D01*
X0059233Y0065150D01*
X0057298Y0065150D01*
X0058266Y0066601D02*
X0059233Y0066601D01*
X0060245Y0066601D02*
X0060245Y0065634D01*
X0060729Y0065150D01*
X0062180Y0065150D01*
X0062180Y0064183D02*
X0062180Y0067085D01*
X0060729Y0067085D01*
X0060245Y0066601D01*
X0063191Y0067569D02*
X0063191Y0068052D01*
X0063191Y0067569D02*
X0064159Y0066601D01*
X0064159Y0065150D01*
X0064159Y0066601D02*
X0065126Y0067569D01*
X0065126Y0068052D01*
X0066123Y0067085D02*
X0067091Y0067085D01*
X0066607Y0067569D02*
X0066607Y0065634D01*
X0066123Y0065150D01*
X0068102Y0065634D02*
X0068102Y0067569D01*
X0068586Y0068052D01*
X0069553Y0068052D01*
X0070037Y0067569D01*
X0070037Y0065634D01*
X0069553Y0065150D01*
X0068586Y0065150D01*
X0068102Y0065634D01*
X0071034Y0065150D02*
X0071518Y0065634D01*
X0071518Y0067569D01*
X0072002Y0067085D02*
X0071034Y0067085D01*
X0073013Y0067569D02*
X0073013Y0065634D01*
X0073497Y0065150D01*
X0074464Y0065150D01*
X0074948Y0065634D01*
X0074948Y0067569D01*
X0074464Y0068052D01*
X0073497Y0068052D01*
X0073013Y0067569D01*
X0075952Y0067085D02*
X0076436Y0067085D01*
X0077403Y0066117D01*
X0077403Y0065150D02*
X0077403Y0067085D01*
X0078415Y0067569D02*
X0078415Y0066601D01*
X0078899Y0066117D01*
X0080350Y0066117D01*
X0080350Y0065150D02*
X0080350Y0068052D01*
X0078899Y0068052D01*
X0078415Y0067569D01*
X0364733Y0063236D02*
X0364733Y0062619D01*
X0365350Y0062002D01*
X0364733Y0061384D01*
X0364733Y0060767D01*
X0365350Y0060150D01*
X0366585Y0060150D01*
X0367202Y0060767D01*
X0368426Y0060767D02*
X0368426Y0060150D01*
X0369043Y0060150D01*
X0369043Y0060767D01*
X0368426Y0060767D01*
X0370258Y0060150D02*
X0372726Y0060150D01*
X0371492Y0060150D02*
X0371492Y0063853D01*
X0372726Y0062619D01*
X0367202Y0063236D02*
X0366585Y0063853D01*
X0365350Y0063853D01*
X0364733Y0063236D01*
X0365350Y0062002D02*
X0365967Y0062002D01*
X0365961Y0066150D02*
X0367812Y0066150D01*
X0368429Y0066767D01*
X0368429Y0068002D01*
X0367812Y0068619D01*
X0365961Y0068619D01*
X0365961Y0069853D02*
X0365961Y0066150D01*
X0369647Y0068619D02*
X0370264Y0068619D01*
X0371499Y0067384D01*
X0372713Y0067384D02*
X0374565Y0067384D01*
X0375182Y0066767D01*
X0374565Y0066150D01*
X0372713Y0066150D01*
X0372713Y0068002D01*
X0373330Y0068619D01*
X0374565Y0068619D01*
X0376396Y0068002D02*
X0377013Y0068619D01*
X0378248Y0068619D01*
X0378865Y0068002D01*
X0378865Y0066767D01*
X0378248Y0066150D01*
X0377013Y0066150D01*
X0376396Y0066767D01*
X0376396Y0068002D01*
X0380079Y0068619D02*
X0380697Y0068002D01*
X0382548Y0068002D01*
X0383763Y0068619D02*
X0385614Y0068619D01*
X0386231Y0068002D01*
X0386231Y0066767D01*
X0385614Y0066150D01*
X0383763Y0066150D01*
X0383763Y0069853D01*
X0382548Y0069853D02*
X0380697Y0069853D01*
X0380079Y0069236D01*
X0380079Y0068619D01*
X0380697Y0068002D02*
X0380079Y0067384D01*
X0380079Y0066767D01*
X0380697Y0066150D01*
X0382548Y0066150D01*
X0382548Y0069853D01*
X0387446Y0068002D02*
X0387446Y0066150D01*
X0389297Y0066150D01*
X0389914Y0066767D01*
X0389297Y0067384D01*
X0387446Y0067384D01*
X0387446Y0068002D02*
X0388063Y0068619D01*
X0389297Y0068619D01*
X0391129Y0068002D02*
X0391129Y0067384D01*
X0393598Y0067384D01*
X0393598Y0066767D02*
X0393598Y0068002D01*
X0392980Y0068619D01*
X0391746Y0068619D01*
X0391129Y0068002D01*
X0391746Y0066150D02*
X0392980Y0066150D01*
X0393598Y0066767D01*
X0394815Y0068619D02*
X0395432Y0068619D01*
X0396667Y0067384D01*
X0397881Y0067384D02*
X0397881Y0066767D01*
X0398498Y0066150D01*
X0400350Y0066150D01*
X0400350Y0069853D01*
X0398498Y0069853D01*
X0397881Y0069236D01*
X0397881Y0068619D01*
X0398498Y0068002D01*
X0400350Y0068002D01*
X0398498Y0068002D02*
X0397881Y0067384D01*
X0396667Y0066150D02*
X0396667Y0068619D01*
X0397881Y0063853D02*
X0397881Y0061384D01*
X0399116Y0060150D01*
X0400350Y0061384D01*
X0400350Y0063853D01*
X0396667Y0062002D02*
X0396050Y0062619D01*
X0394815Y0062619D01*
X0394198Y0062002D01*
X0394198Y0061384D01*
X0396667Y0061384D01*
X0396667Y0060767D02*
X0396667Y0062002D01*
X0396667Y0060767D02*
X0396050Y0060150D01*
X0394815Y0060150D01*
X0392984Y0060150D02*
X0392984Y0062619D01*
X0392984Y0061384D02*
X0391749Y0062619D01*
X0391132Y0062619D01*
X0389914Y0062002D02*
X0389297Y0062619D01*
X0387446Y0062619D01*
X0386231Y0062619D02*
X0385614Y0062619D01*
X0385614Y0060150D01*
X0386231Y0060150D02*
X0384997Y0060150D01*
X0383776Y0060767D02*
X0383159Y0060150D01*
X0381924Y0060150D01*
X0381307Y0060767D01*
X0381307Y0062002D01*
X0381924Y0062619D01*
X0383159Y0062619D01*
X0383776Y0062002D01*
X0383776Y0060767D01*
X0387446Y0060767D02*
X0388063Y0061384D01*
X0389297Y0061384D01*
X0389914Y0062002D01*
X0389914Y0060150D02*
X0388063Y0060150D01*
X0387446Y0060767D01*
X0385614Y0063853D02*
X0385614Y0064470D01*
X0380093Y0062619D02*
X0378241Y0062619D01*
X0377624Y0062002D01*
X0377624Y0060150D01*
X0380093Y0060150D02*
X0380093Y0062619D01*
X0371499Y0066150D02*
X0371499Y0068619D01*
X0398650Y0088853D02*
X0398650Y0090705D01*
X0399267Y0091322D01*
X0399884Y0091322D01*
X0400502Y0090705D01*
X0400502Y0088853D01*
X0402353Y0088853D02*
X0402353Y0090705D01*
X0401736Y0091322D01*
X0401119Y0091322D01*
X0400502Y0090705D01*
X0400502Y0092536D02*
X0399267Y0092536D01*
X0398650Y0093154D01*
X0398650Y0094388D01*
X0399267Y0095005D01*
X0400502Y0095005D01*
X0401119Y0094388D01*
X0401119Y0093154D01*
X0400502Y0092536D01*
X0399267Y0096220D02*
X0398650Y0096837D01*
X0398650Y0098688D01*
X0400502Y0098688D01*
X0401119Y0098071D01*
X0401119Y0096837D01*
X0399884Y0096837D02*
X0399884Y0098688D01*
X0399884Y0099903D02*
X0401119Y0101137D01*
X0401119Y0101754D01*
X0400502Y0102972D02*
X0401119Y0103589D01*
X0401119Y0105441D01*
X0402353Y0105441D02*
X0398650Y0105441D01*
X0398650Y0103589D01*
X0399267Y0102972D01*
X0400502Y0102972D01*
X0401119Y0099903D02*
X0398650Y0099903D01*
X0399884Y0096837D02*
X0399267Y0096220D01*
X0398650Y0088853D02*
X0402353Y0088853D01*
X0402353Y0110338D02*
X0402353Y0110956D01*
X0398650Y0110956D01*
X0398650Y0111573D02*
X0398650Y0110338D01*
X0399267Y0112794D02*
X0398650Y0113411D01*
X0398650Y0115263D01*
X0400502Y0115263D01*
X0401119Y0114645D01*
X0401119Y0113411D01*
X0399884Y0113411D02*
X0399884Y0115263D01*
X0399267Y0116477D02*
X0398650Y0117094D01*
X0398650Y0118946D01*
X0398033Y0118946D02*
X0397416Y0118328D01*
X0397416Y0117711D01*
X0398033Y0118946D02*
X0401119Y0118946D01*
X0400502Y0120160D02*
X0399267Y0120160D01*
X0398650Y0120777D01*
X0398650Y0122012D01*
X0399267Y0122629D01*
X0400502Y0122629D01*
X0401119Y0122012D01*
X0401119Y0120777D01*
X0400502Y0120160D01*
X0401119Y0123843D02*
X0399267Y0123843D01*
X0398650Y0124460D01*
X0398650Y0126312D01*
X0401119Y0126312D01*
X0401119Y0127526D02*
X0401119Y0128761D01*
X0401736Y0128144D02*
X0399267Y0128144D01*
X0398650Y0128761D01*
X0398650Y0133665D02*
X0398650Y0135516D01*
X0399267Y0136134D01*
X0400502Y0136134D01*
X0401119Y0135516D01*
X0401119Y0133665D01*
X0402353Y0133665D02*
X0398650Y0133665D01*
X0399267Y0137348D02*
X0398650Y0137965D01*
X0398650Y0139817D01*
X0398033Y0139817D02*
X0397416Y0139200D01*
X0397416Y0138582D01*
X0398033Y0139817D02*
X0401119Y0139817D01*
X0401119Y0137348D02*
X0399267Y0137348D01*
X0398650Y0144714D02*
X0401119Y0144714D01*
X0402353Y0145949D01*
X0401119Y0147183D01*
X0398650Y0147183D01*
X0398650Y0148397D02*
X0398650Y0149632D01*
X0398650Y0149015D02*
X0402353Y0149015D01*
X0402353Y0148397D01*
X0400502Y0147183D02*
X0400502Y0144714D01*
X0400502Y0150853D02*
X0401119Y0151470D01*
X0401119Y0152704D01*
X0400502Y0153322D01*
X0399884Y0153322D01*
X0399884Y0150853D01*
X0399267Y0150853D02*
X0400502Y0150853D01*
X0399267Y0150853D02*
X0398650Y0151470D01*
X0398650Y0152704D01*
X0398650Y0154536D02*
X0401119Y0157005D01*
X0400502Y0158219D02*
X0401119Y0158836D01*
X0401119Y0160071D01*
X0400502Y0160688D01*
X0399884Y0160688D01*
X0399884Y0158219D01*
X0399267Y0158219D02*
X0400502Y0158219D01*
X0399267Y0158219D02*
X0398650Y0158836D01*
X0398650Y0160071D01*
X0399267Y0161902D02*
X0398650Y0162520D01*
X0398650Y0164371D01*
X0398033Y0164371D02*
X0397416Y0163754D01*
X0397416Y0163137D01*
X0398033Y0164371D02*
X0401119Y0164371D01*
X0401119Y0161902D02*
X0399267Y0161902D01*
X0398650Y0157005D02*
X0401119Y0154536D01*
X0402353Y0169269D02*
X0398650Y0169269D01*
X0399884Y0169269D02*
X0399884Y0171120D01*
X0400502Y0171737D01*
X0401736Y0171737D01*
X0402353Y0171120D01*
X0402353Y0169269D01*
X0400502Y0172952D02*
X0399267Y0172952D01*
X0398650Y0173569D01*
X0398650Y0174803D01*
X0399267Y0175421D01*
X0400502Y0175421D01*
X0401119Y0174803D01*
X0401119Y0173569D01*
X0400502Y0172952D01*
X0400502Y0176635D02*
X0401119Y0177252D01*
X0401119Y0179104D01*
X0401119Y0180318D02*
X0398650Y0180318D01*
X0398650Y0179104D02*
X0398650Y0177252D01*
X0399267Y0176635D01*
X0400502Y0176635D01*
X0402353Y0179104D02*
X0398650Y0179104D01*
X0399884Y0180318D02*
X0401119Y0181552D01*
X0401119Y0182170D01*
X0400502Y0183387D02*
X0401119Y0184005D01*
X0401119Y0185239D01*
X0400502Y0185856D01*
X0399884Y0185856D01*
X0399884Y0183387D01*
X0399267Y0183387D02*
X0400502Y0183387D01*
X0399267Y0183387D02*
X0398650Y0184005D01*
X0398650Y0185239D01*
X0398650Y0187070D02*
X0398650Y0189539D01*
X0399267Y0190754D02*
X0398650Y0191371D01*
X0398650Y0192605D01*
X0399267Y0193222D01*
X0400502Y0193222D01*
X0401119Y0192605D01*
X0401119Y0191371D01*
X0400502Y0190754D01*
X0399267Y0190754D01*
X0401119Y0189539D02*
X0398650Y0187070D01*
X0401119Y0187070D02*
X0401119Y0189539D01*
X0401119Y0194437D02*
X0398650Y0195671D01*
X0401119Y0196906D01*
X0401119Y0201803D02*
X0402353Y0203037D01*
X0401736Y0204259D02*
X0402353Y0204876D01*
X0402353Y0206110D01*
X0401736Y0206727D01*
X0401119Y0206727D01*
X0398650Y0204259D01*
X0398650Y0206727D01*
X0399267Y0207942D02*
X0398650Y0208559D01*
X0398650Y0209793D01*
X0399267Y0210410D01*
X0401736Y0210410D01*
X0399267Y0207942D01*
X0401736Y0207942D01*
X0402353Y0208559D01*
X0402353Y0209793D01*
X0401736Y0210410D01*
X0401119Y0211625D02*
X0402353Y0212859D01*
X0398650Y0212859D01*
X0398650Y0211625D02*
X0398650Y0214094D01*
X0398650Y0215308D02*
X0399267Y0215308D01*
X0401736Y0217777D01*
X0402353Y0217777D01*
X0402353Y0215308D01*
X0402353Y0218991D02*
X0401119Y0220225D01*
X0399884Y0220225D01*
X0398650Y0218991D01*
X0398650Y0203037D02*
X0399884Y0201803D01*
X0401119Y0201803D01*
X0401119Y0116477D02*
X0399267Y0116477D01*
X0399884Y0113411D02*
X0399267Y0112794D01*
D14*
X0331000Y0068000D02*
X0331003Y0068233D01*
X0331011Y0068466D01*
X0331026Y0068699D01*
X0331046Y0068931D01*
X0331071Y0069163D01*
X0331103Y0069394D01*
X0331140Y0069624D01*
X0331183Y0069853D01*
X0331231Y0070081D01*
X0331285Y0070308D01*
X0331344Y0070534D01*
X0331409Y0070758D01*
X0331479Y0070980D01*
X0331555Y0071200D01*
X0331637Y0071419D01*
X0331723Y0071635D01*
X0331815Y0071850D01*
X0331912Y0072062D01*
X0332014Y0072271D01*
X0332122Y0072478D01*
X0332234Y0072683D01*
X0332352Y0072884D01*
X0332474Y0073082D01*
X0332601Y0073278D01*
X0332733Y0073470D01*
X0332870Y0073659D01*
X0333011Y0073845D01*
X0333156Y0074027D01*
X0333307Y0074205D01*
X0333461Y0074380D01*
X0333620Y0074551D01*
X0333782Y0074718D01*
X0333949Y0074880D01*
X0334120Y0075039D01*
X0334295Y0075193D01*
X0334473Y0075344D01*
X0334655Y0075489D01*
X0334841Y0075630D01*
X0335030Y0075767D01*
X0335222Y0075899D01*
X0335418Y0076026D01*
X0335616Y0076148D01*
X0335817Y0076266D01*
X0336022Y0076378D01*
X0336229Y0076486D01*
X0336438Y0076588D01*
X0336650Y0076685D01*
X0336865Y0076777D01*
X0337081Y0076863D01*
X0337300Y0076945D01*
X0337520Y0077021D01*
X0337742Y0077091D01*
X0337966Y0077156D01*
X0338192Y0077215D01*
X0338419Y0077269D01*
X0338647Y0077317D01*
X0338876Y0077360D01*
X0339106Y0077397D01*
X0339337Y0077429D01*
X0339569Y0077454D01*
X0339801Y0077474D01*
X0340034Y0077489D01*
X0340267Y0077497D01*
X0340500Y0077500D01*
X0340733Y0077497D01*
X0340966Y0077489D01*
X0341199Y0077474D01*
X0341431Y0077454D01*
X0341663Y0077429D01*
X0341894Y0077397D01*
X0342124Y0077360D01*
X0342353Y0077317D01*
X0342581Y0077269D01*
X0342808Y0077215D01*
X0343034Y0077156D01*
X0343258Y0077091D01*
X0343480Y0077021D01*
X0343700Y0076945D01*
X0343919Y0076863D01*
X0344135Y0076777D01*
X0344350Y0076685D01*
X0344562Y0076588D01*
X0344771Y0076486D01*
X0344978Y0076378D01*
X0345183Y0076266D01*
X0345384Y0076148D01*
X0345582Y0076026D01*
X0345778Y0075899D01*
X0345970Y0075767D01*
X0346159Y0075630D01*
X0346345Y0075489D01*
X0346527Y0075344D01*
X0346705Y0075193D01*
X0346880Y0075039D01*
X0347051Y0074880D01*
X0347218Y0074718D01*
X0347380Y0074551D01*
X0347539Y0074380D01*
X0347693Y0074205D01*
X0347844Y0074027D01*
X0347989Y0073845D01*
X0348130Y0073659D01*
X0348267Y0073470D01*
X0348399Y0073278D01*
X0348526Y0073082D01*
X0348648Y0072884D01*
X0348766Y0072683D01*
X0348878Y0072478D01*
X0348986Y0072271D01*
X0349088Y0072062D01*
X0349185Y0071850D01*
X0349277Y0071635D01*
X0349363Y0071419D01*
X0349445Y0071200D01*
X0349521Y0070980D01*
X0349591Y0070758D01*
X0349656Y0070534D01*
X0349715Y0070308D01*
X0349769Y0070081D01*
X0349817Y0069853D01*
X0349860Y0069624D01*
X0349897Y0069394D01*
X0349929Y0069163D01*
X0349954Y0068931D01*
X0349974Y0068699D01*
X0349989Y0068466D01*
X0349997Y0068233D01*
X0350000Y0068000D01*
X0349997Y0067767D01*
X0349989Y0067534D01*
X0349974Y0067301D01*
X0349954Y0067069D01*
X0349929Y0066837D01*
X0349897Y0066606D01*
X0349860Y0066376D01*
X0349817Y0066147D01*
X0349769Y0065919D01*
X0349715Y0065692D01*
X0349656Y0065466D01*
X0349591Y0065242D01*
X0349521Y0065020D01*
X0349445Y0064800D01*
X0349363Y0064581D01*
X0349277Y0064365D01*
X0349185Y0064150D01*
X0349088Y0063938D01*
X0348986Y0063729D01*
X0348878Y0063522D01*
X0348766Y0063317D01*
X0348648Y0063116D01*
X0348526Y0062918D01*
X0348399Y0062722D01*
X0348267Y0062530D01*
X0348130Y0062341D01*
X0347989Y0062155D01*
X0347844Y0061973D01*
X0347693Y0061795D01*
X0347539Y0061620D01*
X0347380Y0061449D01*
X0347218Y0061282D01*
X0347051Y0061120D01*
X0346880Y0060961D01*
X0346705Y0060807D01*
X0346527Y0060656D01*
X0346345Y0060511D01*
X0346159Y0060370D01*
X0345970Y0060233D01*
X0345778Y0060101D01*
X0345582Y0059974D01*
X0345384Y0059852D01*
X0345183Y0059734D01*
X0344978Y0059622D01*
X0344771Y0059514D01*
X0344562Y0059412D01*
X0344350Y0059315D01*
X0344135Y0059223D01*
X0343919Y0059137D01*
X0343700Y0059055D01*
X0343480Y0058979D01*
X0343258Y0058909D01*
X0343034Y0058844D01*
X0342808Y0058785D01*
X0342581Y0058731D01*
X0342353Y0058683D01*
X0342124Y0058640D01*
X0341894Y0058603D01*
X0341663Y0058571D01*
X0341431Y0058546D01*
X0341199Y0058526D01*
X0340966Y0058511D01*
X0340733Y0058503D01*
X0340500Y0058500D01*
X0340267Y0058503D01*
X0340034Y0058511D01*
X0339801Y0058526D01*
X0339569Y0058546D01*
X0339337Y0058571D01*
X0339106Y0058603D01*
X0338876Y0058640D01*
X0338647Y0058683D01*
X0338419Y0058731D01*
X0338192Y0058785D01*
X0337966Y0058844D01*
X0337742Y0058909D01*
X0337520Y0058979D01*
X0337300Y0059055D01*
X0337081Y0059137D01*
X0336865Y0059223D01*
X0336650Y0059315D01*
X0336438Y0059412D01*
X0336229Y0059514D01*
X0336022Y0059622D01*
X0335817Y0059734D01*
X0335616Y0059852D01*
X0335418Y0059974D01*
X0335222Y0060101D01*
X0335030Y0060233D01*
X0334841Y0060370D01*
X0334655Y0060511D01*
X0334473Y0060656D01*
X0334295Y0060807D01*
X0334120Y0060961D01*
X0333949Y0061120D01*
X0333782Y0061282D01*
X0333620Y0061449D01*
X0333461Y0061620D01*
X0333307Y0061795D01*
X0333156Y0061973D01*
X0333011Y0062155D01*
X0332870Y0062341D01*
X0332733Y0062530D01*
X0332601Y0062722D01*
X0332474Y0062918D01*
X0332352Y0063116D01*
X0332234Y0063317D01*
X0332122Y0063522D01*
X0332014Y0063729D01*
X0331912Y0063938D01*
X0331815Y0064150D01*
X0331723Y0064365D01*
X0331637Y0064581D01*
X0331555Y0064800D01*
X0331479Y0065020D01*
X0331409Y0065242D01*
X0331344Y0065466D01*
X0331285Y0065692D01*
X0331231Y0065919D01*
X0331183Y0066147D01*
X0331140Y0066376D01*
X0331103Y0066606D01*
X0331071Y0066837D01*
X0331046Y0067069D01*
X0331026Y0067301D01*
X0331011Y0067534D01*
X0331003Y0067767D01*
X0331000Y0068000D01*
X0360000Y0056000D02*
X0360000Y0007500D01*
X0357500Y0005000D01*
X0103500Y0005000D01*
X0101000Y0007500D01*
X0101000Y0056000D01*
X0111000Y0088000D02*
X0111003Y0088233D01*
X0111011Y0088466D01*
X0111026Y0088699D01*
X0111046Y0088931D01*
X0111071Y0089163D01*
X0111103Y0089394D01*
X0111140Y0089624D01*
X0111183Y0089853D01*
X0111231Y0090081D01*
X0111285Y0090308D01*
X0111344Y0090534D01*
X0111409Y0090758D01*
X0111479Y0090980D01*
X0111555Y0091200D01*
X0111637Y0091419D01*
X0111723Y0091635D01*
X0111815Y0091850D01*
X0111912Y0092062D01*
X0112014Y0092271D01*
X0112122Y0092478D01*
X0112234Y0092683D01*
X0112352Y0092884D01*
X0112474Y0093082D01*
X0112601Y0093278D01*
X0112733Y0093470D01*
X0112870Y0093659D01*
X0113011Y0093845D01*
X0113156Y0094027D01*
X0113307Y0094205D01*
X0113461Y0094380D01*
X0113620Y0094551D01*
X0113782Y0094718D01*
X0113949Y0094880D01*
X0114120Y0095039D01*
X0114295Y0095193D01*
X0114473Y0095344D01*
X0114655Y0095489D01*
X0114841Y0095630D01*
X0115030Y0095767D01*
X0115222Y0095899D01*
X0115418Y0096026D01*
X0115616Y0096148D01*
X0115817Y0096266D01*
X0116022Y0096378D01*
X0116229Y0096486D01*
X0116438Y0096588D01*
X0116650Y0096685D01*
X0116865Y0096777D01*
X0117081Y0096863D01*
X0117300Y0096945D01*
X0117520Y0097021D01*
X0117742Y0097091D01*
X0117966Y0097156D01*
X0118192Y0097215D01*
X0118419Y0097269D01*
X0118647Y0097317D01*
X0118876Y0097360D01*
X0119106Y0097397D01*
X0119337Y0097429D01*
X0119569Y0097454D01*
X0119801Y0097474D01*
X0120034Y0097489D01*
X0120267Y0097497D01*
X0120500Y0097500D01*
X0120733Y0097497D01*
X0120966Y0097489D01*
X0121199Y0097474D01*
X0121431Y0097454D01*
X0121663Y0097429D01*
X0121894Y0097397D01*
X0122124Y0097360D01*
X0122353Y0097317D01*
X0122581Y0097269D01*
X0122808Y0097215D01*
X0123034Y0097156D01*
X0123258Y0097091D01*
X0123480Y0097021D01*
X0123700Y0096945D01*
X0123919Y0096863D01*
X0124135Y0096777D01*
X0124350Y0096685D01*
X0124562Y0096588D01*
X0124771Y0096486D01*
X0124978Y0096378D01*
X0125183Y0096266D01*
X0125384Y0096148D01*
X0125582Y0096026D01*
X0125778Y0095899D01*
X0125970Y0095767D01*
X0126159Y0095630D01*
X0126345Y0095489D01*
X0126527Y0095344D01*
X0126705Y0095193D01*
X0126880Y0095039D01*
X0127051Y0094880D01*
X0127218Y0094718D01*
X0127380Y0094551D01*
X0127539Y0094380D01*
X0127693Y0094205D01*
X0127844Y0094027D01*
X0127989Y0093845D01*
X0128130Y0093659D01*
X0128267Y0093470D01*
X0128399Y0093278D01*
X0128526Y0093082D01*
X0128648Y0092884D01*
X0128766Y0092683D01*
X0128878Y0092478D01*
X0128986Y0092271D01*
X0129088Y0092062D01*
X0129185Y0091850D01*
X0129277Y0091635D01*
X0129363Y0091419D01*
X0129445Y0091200D01*
X0129521Y0090980D01*
X0129591Y0090758D01*
X0129656Y0090534D01*
X0129715Y0090308D01*
X0129769Y0090081D01*
X0129817Y0089853D01*
X0129860Y0089624D01*
X0129897Y0089394D01*
X0129929Y0089163D01*
X0129954Y0088931D01*
X0129974Y0088699D01*
X0129989Y0088466D01*
X0129997Y0088233D01*
X0130000Y0088000D01*
X0129997Y0087767D01*
X0129989Y0087534D01*
X0129974Y0087301D01*
X0129954Y0087069D01*
X0129929Y0086837D01*
X0129897Y0086606D01*
X0129860Y0086376D01*
X0129817Y0086147D01*
X0129769Y0085919D01*
X0129715Y0085692D01*
X0129656Y0085466D01*
X0129591Y0085242D01*
X0129521Y0085020D01*
X0129445Y0084800D01*
X0129363Y0084581D01*
X0129277Y0084365D01*
X0129185Y0084150D01*
X0129088Y0083938D01*
X0128986Y0083729D01*
X0128878Y0083522D01*
X0128766Y0083317D01*
X0128648Y0083116D01*
X0128526Y0082918D01*
X0128399Y0082722D01*
X0128267Y0082530D01*
X0128130Y0082341D01*
X0127989Y0082155D01*
X0127844Y0081973D01*
X0127693Y0081795D01*
X0127539Y0081620D01*
X0127380Y0081449D01*
X0127218Y0081282D01*
X0127051Y0081120D01*
X0126880Y0080961D01*
X0126705Y0080807D01*
X0126527Y0080656D01*
X0126345Y0080511D01*
X0126159Y0080370D01*
X0125970Y0080233D01*
X0125778Y0080101D01*
X0125582Y0079974D01*
X0125384Y0079852D01*
X0125183Y0079734D01*
X0124978Y0079622D01*
X0124771Y0079514D01*
X0124562Y0079412D01*
X0124350Y0079315D01*
X0124135Y0079223D01*
X0123919Y0079137D01*
X0123700Y0079055D01*
X0123480Y0078979D01*
X0123258Y0078909D01*
X0123034Y0078844D01*
X0122808Y0078785D01*
X0122581Y0078731D01*
X0122353Y0078683D01*
X0122124Y0078640D01*
X0121894Y0078603D01*
X0121663Y0078571D01*
X0121431Y0078546D01*
X0121199Y0078526D01*
X0120966Y0078511D01*
X0120733Y0078503D01*
X0120500Y0078500D01*
X0120267Y0078503D01*
X0120034Y0078511D01*
X0119801Y0078526D01*
X0119569Y0078546D01*
X0119337Y0078571D01*
X0119106Y0078603D01*
X0118876Y0078640D01*
X0118647Y0078683D01*
X0118419Y0078731D01*
X0118192Y0078785D01*
X0117966Y0078844D01*
X0117742Y0078909D01*
X0117520Y0078979D01*
X0117300Y0079055D01*
X0117081Y0079137D01*
X0116865Y0079223D01*
X0116650Y0079315D01*
X0116438Y0079412D01*
X0116229Y0079514D01*
X0116022Y0079622D01*
X0115817Y0079734D01*
X0115616Y0079852D01*
X0115418Y0079974D01*
X0115222Y0080101D01*
X0115030Y0080233D01*
X0114841Y0080370D01*
X0114655Y0080511D01*
X0114473Y0080656D01*
X0114295Y0080807D01*
X0114120Y0080961D01*
X0113949Y0081120D01*
X0113782Y0081282D01*
X0113620Y0081449D01*
X0113461Y0081620D01*
X0113307Y0081795D01*
X0113156Y0081973D01*
X0113011Y0082155D01*
X0112870Y0082341D01*
X0112733Y0082530D01*
X0112601Y0082722D01*
X0112474Y0082918D01*
X0112352Y0083116D01*
X0112234Y0083317D01*
X0112122Y0083522D01*
X0112014Y0083729D01*
X0111912Y0083938D01*
X0111815Y0084150D01*
X0111723Y0084365D01*
X0111637Y0084581D01*
X0111555Y0084800D01*
X0111479Y0085020D01*
X0111409Y0085242D01*
X0111344Y0085466D01*
X0111285Y0085692D01*
X0111231Y0085919D01*
X0111183Y0086147D01*
X0111140Y0086376D01*
X0111103Y0086606D01*
X0111071Y0086837D01*
X0111046Y0087069D01*
X0111026Y0087301D01*
X0111011Y0087534D01*
X0111003Y0087767D01*
X0111000Y0088000D01*
M02*
