%
M48
M72
T01C0.03000
T02C0.03200
T03C0.03500
T04C0.19000
%
T01
X70500Y85000
X80500Y85000
X90500Y85000
X100500Y85000
X100500Y95000
X90500Y95000
X80500Y95000
X70500Y95000
X70500Y105000
X60500Y105000
X50500Y105000
X40500Y105000
X40500Y115000
X50500Y115000
X60500Y115000
X70500Y115000
X80500Y115000
X90500Y115000
X100500Y115000
X110500Y115000
X120500Y115000
X130500Y115000
X140500Y115000
X150500Y115000
X160500Y115000
X170500Y115000
X180500Y115000
X190500Y115000
X200500Y115000
X210500Y115000
X220500Y115000
X230500Y115000
X240500Y115000
X250500Y115000
X260500Y115000
X270500Y115000
X280500Y115000
X290500Y115000
X300500Y115000
X310500Y115000
X320500Y115000
X330500Y115000
X340500Y115000
X350500Y115000
X360500Y115000
X370500Y115000
X380500Y115000
X380500Y105000
X370500Y105000
X360500Y105000
X350500Y105000
X340500Y105000
X330500Y105000
X320500Y105000
X310500Y105000
X300500Y105000
X290500Y105000
X280500Y105000
X270500Y105000
X260500Y105000
X250500Y105000
X240500Y105000
X230500Y105000
X220500Y105000
X210500Y105000
X200500Y105000
X190500Y105000
X180500Y105000
X170500Y105000
X160500Y105000
X150500Y105000
X140500Y105000
X130500Y105000
X120500Y105000
X110500Y105000
X100500Y105000
X90500Y105000
X80500Y105000
X80500Y125000
X70500Y125000
X60500Y125000
X50500Y125000
X40500Y125000
X40500Y135000
X50500Y135000
X60500Y135000
X70500Y135000
X80500Y135000
X90500Y135000
X100500Y135000
X110500Y135000
X120500Y135000
X130500Y135000
X140500Y135000
X150500Y135000
X160500Y135000
X170500Y135000
X180500Y135000
X190500Y135000
X200500Y135000
X210500Y135000
X220500Y135000
X230500Y135000
X240500Y135000
X250500Y135000
X260500Y135000
X270500Y135000
X280500Y135000
X290500Y135000
X300500Y135000
X310500Y135000
X320500Y135000
X330500Y135000
X340500Y135000
X350500Y135000
X360500Y135000
X370500Y135000
X380500Y135000
X380500Y125000
X370500Y125000
X360500Y125000
X350500Y125000
X340500Y125000
X330500Y125000
X320500Y125000
X310500Y125000
X300500Y125000
X290500Y125000
X280500Y125000
X270500Y125000
X260500Y125000
X250500Y125000
X240500Y125000
X230500Y125000
X220500Y125000
X210500Y125000
X200500Y125000
X190500Y125000
X180500Y125000
X170500Y125000
X160500Y125000
X150500Y125000
X140500Y125000
X130500Y125000
X120500Y125000
X110500Y125000
X100500Y125000
X90500Y125000
X90500Y145000
X100500Y145000
X110500Y145000
X120500Y145000
X130500Y145000
X140500Y145000
X150500Y145000
X160500Y145000
X170500Y145000
X180500Y145000
X190500Y145000
X200500Y145000
X210500Y145000
X220500Y145000
X230500Y145000
X240500Y145000
X250500Y145000
X260500Y145000
X270500Y145000
X280500Y145000
X290500Y145000
X300500Y145000
X310500Y145000
X320500Y145000
X330500Y145000
X340500Y145000
X350500Y145000
X360500Y145000
X370500Y145000
X380500Y145000
X380500Y155000
X370500Y155000
X360500Y155000
X350500Y155000
X340500Y155000
X330500Y155000
X320500Y155000
X310500Y155000
X300500Y155000
X290500Y155000
X280500Y155000
X270500Y155000
X260500Y155000
X250500Y155000
X240500Y155000
X230500Y155000
X220500Y155000
X210500Y155000
X200500Y155000
X190500Y155000
X180500Y155000
X170500Y155000
X160500Y155000
X150500Y155000
X140500Y155000
X130500Y155000
X120500Y155000
X110500Y155000
X100500Y155000
X90500Y155000
X80500Y155000
X70500Y155000
X60500Y155000
X50500Y155000
X40500Y155000
X40500Y145000
X50500Y145000
X60500Y145000
X70500Y145000
X80500Y145000
X80500Y165000
X70500Y165000
X60500Y165000
X50500Y165000
X40500Y165000
X40500Y175000
X50500Y175000
X60500Y175000
X70500Y175000
X80500Y175000
X90500Y175000
X100500Y175000
X110500Y175000
X120500Y175000
X130500Y175000
X140500Y175000
X150500Y175000
X160500Y175000
X170500Y175000
X180500Y175000
X190500Y175000
X200500Y175000
X210500Y175000
X220500Y175000
X230500Y175000
X240500Y175000
X250500Y175000
X260500Y175000
X270500Y175000
X280500Y175000
X290500Y175000
X300500Y175000
X310500Y175000
X320500Y175000
X330500Y175000
X340500Y175000
X350500Y175000
X360500Y175000
X370500Y175000
X380500Y175000
X380500Y165000
X370500Y165000
X360500Y165000
X350500Y165000
X340500Y165000
X330500Y165000
X320500Y165000
X310500Y165000
X300500Y165000
X290500Y165000
X280500Y165000
X270500Y165000
X260500Y165000
X250500Y165000
X240500Y165000
X230500Y165000
X220500Y165000
X210500Y165000
X200500Y165000
X190500Y165000
X180500Y165000
X170500Y165000
X160500Y165000
X150500Y165000
X140500Y165000
X130500Y165000
X120500Y165000
X110500Y165000
X100500Y165000
X90500Y165000
X90500Y185000
X100500Y185000
X110500Y185000
X120500Y185000
X130500Y185000
X140500Y185000
X150500Y185000
X160500Y185000
X170500Y185000
X180500Y185000
X190500Y185000
X200500Y185000
X210500Y185000
X220500Y185000
X230500Y185000
X240500Y185000
X250500Y185000
X260500Y185000
X270500Y185000
X280500Y185000
X290500Y185000
X300500Y185000
X310500Y185000
X320500Y185000
X330500Y185000
X340500Y185000
X350500Y185000
X360500Y185000
X370500Y185000
X380500Y185000
X380500Y195000
X370500Y195000
X360500Y195000
X350500Y195000
X340500Y195000
X330500Y195000
X320500Y195000
X310500Y195000
X300500Y195000
X290500Y195000
X280500Y195000
X270500Y195000
X260500Y195000
X250500Y195000
X240500Y195000
X230500Y195000
X220500Y195000
X210500Y195000
X200500Y195000
X190500Y195000
X180500Y195000
X170500Y195000
X160500Y195000
X150500Y195000
X140500Y195000
X130500Y195000
X120500Y195000
X110500Y195000
X100500Y195000
X90500Y195000
X80500Y195000
X70500Y195000
X60500Y195000
X50500Y195000
X40500Y195000
X40500Y185000
X50500Y185000
X60500Y185000
X70500Y185000
X80500Y185000
X80500Y205000
X70500Y205000
X60500Y205000
X50500Y205000
X40500Y205000
X40500Y215000
X50500Y215000
X60500Y215000
X70500Y215000
X80500Y215000
X90500Y215000
X100500Y215000
X110500Y215000
X120500Y215000
X130500Y215000
X140500Y215000
X150500Y215000
X160500Y215000
X170500Y215000
X180500Y215000
X190500Y215000
X200500Y215000
X210500Y215000
X220500Y215000
X230500Y215000
X240500Y215000
X250500Y215000
X260500Y215000
X270500Y215000
X280500Y215000
X290500Y215000
X300500Y215000
X310500Y215000
X320500Y215000
X330500Y215000
X340500Y215000
X350500Y215000
X360500Y215000
X370500Y215000
X380500Y215000
X380500Y205000
X370500Y205000
X360500Y205000
X350500Y205000
X340500Y205000
X330500Y205000
X320500Y205000
X310500Y205000
X300500Y205000
X290500Y205000
X280500Y205000
X270500Y205000
X260500Y205000
X250500Y205000
X240500Y205000
X230500Y205000
X220500Y205000
X210500Y205000
X200500Y205000
X190500Y205000
X180500Y205000
X170500Y205000
X160500Y205000
X150500Y205000
X140500Y205000
X130500Y205000
X120500Y205000
X110500Y205000
X100500Y205000
X90500Y205000
X90500Y225000
X100500Y225000
X110500Y225000
X120500Y225000
X130500Y225000
X140500Y225000
X150500Y225000
X160500Y225000
X170500Y225000
X180500Y225000
X190500Y225000
X200500Y225000
X210500Y225000
X220500Y225000
X230500Y225000
X240500Y225000
X250500Y225000
X260500Y225000
X270500Y225000
X280500Y225000
X290500Y225000
X300500Y225000
X310500Y225000
X320500Y225000
X330500Y225000
X340500Y225000
X350500Y225000
X360500Y225000
X370500Y225000
X380500Y225000
X380500Y95000
X370500Y95000
X360500Y95000
X350500Y95000
X340500Y95000
X330500Y95000
X320500Y95000
X310500Y95000
X300500Y95000
X290500Y95000
X280500Y95000
X270500Y95000
X260500Y95000
X250500Y95000
X240500Y95000
X230500Y95000
X220500Y95000
X210500Y95000
X200500Y95000
X190500Y95000
X180500Y95000
X170500Y95000
X160500Y95000
X150500Y95000
X140500Y95000
X140500Y85000
X150500Y85000
X160500Y85000
X170500Y85000
X180500Y85000
X190500Y85000
X200500Y85000
X210500Y85000
X220500Y85000
X230500Y85000
X240500Y85000
X250500Y85000
X260500Y85000
X270500Y85000
X280500Y85000
X290500Y85000
X300500Y85000
X310500Y85000
X320500Y85000
X330500Y85000
X340500Y85000
X350500Y85000
X360500Y85000
X370500Y85000
X380500Y85000
X80500Y225000
X70500Y225000
X60500Y225000
X50500Y225000
X40500Y225000
T02
X90500Y65000
X100500Y65000
X110500Y65000
X120500Y65000
X130500Y65000
X140500Y65000
X150500Y65000
X160500Y65000
X170500Y65000
X180500Y65000
X190500Y65000
X200500Y65000
X210500Y65000
X220500Y65000
X230500Y65000
X240500Y65000
X250500Y65000
X260500Y65000
X270500Y65000
X280500Y65000
X290500Y65000
X300500Y65000
X310500Y65000
X320500Y65000
X320500Y45000
X310500Y45000
X300500Y45000
X290500Y45000
X280500Y45000
X270500Y45000
X260500Y45000
X250500Y45000
X240500Y45000
X230500Y45000
X220500Y45000
X210500Y45000
X200500Y45000
X190500Y45000
X180500Y45000
X170500Y45000
X160500Y45000
X150500Y45000
X140500Y45000
X130500Y45000
X120500Y45000
X110500Y45000
X330500Y45000
X340500Y45000
X350500Y45000
T03
X390500Y85000
X390500Y95000
X390500Y105000
X390500Y115000
X390500Y125000
X390500Y135000
X390500Y145000
X390500Y155000
X390500Y165000
X390500Y175000
X390500Y185000
X390500Y195000
X390500Y205000
X390500Y215000
X390500Y225000
X30500Y225000
X30500Y215000
X30500Y205000
X30500Y195000
X30500Y185000
X30500Y175000
X30500Y165000
X30500Y155000
X30500Y145000
X30500Y135000
X30500Y125000
X30500Y115000
X30500Y105000
T04
X120500Y88000
X340500Y68000
M30
